STARTFONT 2.1
FONT -FontForge-Butcherman-Book-R-Normal--36-360-72-72-P-195-ISO10646-1
SIZE 36 72 72
FONTBOUNDINGBOX 54 70 -3 -24
COMMENT "Generated by fontforge, http://fontforge.sourceforge.net"
COMMENT "Copyright (c) 2011, Typomondo, with Reserved Font Name  "Butcherman"."
STARTPROPERTIES 40
FOUNDRY "FontForge"
FAMILY_NAME "Butcherman"
WEIGHT_NAME "Book"
SLANT "R"
SETWIDTH_NAME "Normal"
ADD_STYLE_NAME ""
PIXEL_SIZE 36
POINT_SIZE 360
RESOLUTION_X 72
RESOLUTION_Y 72
SPACING "P"
AVERAGE_WIDTH 195
CHARSET_REGISTRY "ISO10646"
CHARSET_ENCODING "1"
FONTNAME_REGISTRY ""
CHARSET_COLLECTIONS "ISO8859-2 ISO8859-9 ISO8859-4 ISO10646-1"
FONT_NAME "Butcherman-Regular"
FACE_NAME "Butcherman Regular"
COPYRIGHT "Copyright (c) 2011, Typomondo, with Reserved Font Name  "Butcherman"."
FONT_VERSION "001.004"
FONT_ASCENT 29
FONT_DESCENT 7
UNDERLINE_POSITION -4
UNDERLINE_THICKNESS 2
X_HEIGHT 26
CAP_HEIGHT 26
DEFAULT_CHAR 3
RAW_ASCENT 799
RAW_DESCENT 200
NORM_SPACE 6
RELATIVE_WEIGHT 40
RELATIVE_SETWIDTH 50
SUPERSCRIPT_X 0
SUPERSCRIPT_Y 12
SUPERSCRIPT_SIZE 21
SUBSCRIPT_X 0
SUBSCRIPT_Y 2
SUBSCRIPT_SIZE 21
AVG_LOWERCASE_WIDTH 210
AVG_UPPERCASE_WIDTH 200
ENDPROPERTIES
CHARS 331
STARTCHAR NULL.dup1
ENCODING 0
SWIDTH 161 0
DWIDTH 6 0
BBX 1 1 0 0
BITMAP
00
ENDCHAR
STARTCHAR CR
ENCODING 13
SWIDTH 161 0
DWIDTH 6 0
BBX 1 1 0 0
BITMAP
00
ENDCHAR
STARTCHAR space
ENCODING 32
SWIDTH 161 0
DWIDTH 6 0
BBX 1 1 0 0
BITMAP
00
ENDCHAR
STARTCHAR exclam
ENCODING 33
SWIDTH 350 0
DWIDTH 13 0
BBX 11 44 1 1
BITMAP
0800
3F80
FFC0
FFE0
FFC0
FF80
7F80
3F80
7F80
7F80
7F80
7F80
7F80
3F00
3F00
3F00
3F00
1F80
1F00
1F00
1F00
1F00
1F00
1F00
1F00
1F00
1F00
1E00
0300
0000
0000
0000
0FC0
FFC0
7FC0
7FC0
7FC0
7FC0
3FC0
3FC0
3FC0
7FC0
7FC0
6000
ENDCHAR
STARTCHAR quotedbl
ENCODING 34
SWIDTH 541 0
DWIDTH 20 0
BBX 16 14 2 13
BITMAP
080C
FE7F
FE7F
FE7E
FE7E
FC3E
7C3E
7C3E
7C3E
7C1E
7C1C
3C1C
381C
2010
ENDCHAR
STARTCHAR numbersign
ENCODING 35
SWIDTH 583 0
DWIDTH 21 0
BBX 21 32 0 -4
BITMAP
0060F0
0060E0
00E0E0
00E0E0
00C1E0
01C1C0
01C1C0
1FC7C8
1FFFF0
1FFFF0
1FFFE0
1FFFE0
1FFFE0
0FFFE0
070700
070F00
060E00
0E0E00
0E0E00
0E0E00
FFFFC0
FFFF80
FFFF00
FFFF00
5FFF00
181800
383800
303000
703000
707000
507000
101000
ENDCHAR
STARTCHAR dollar
ENCODING 36
SWIDTH 534 0
DWIDTH 19 0
BBX 17 45 1 -10
BITMAP
00C000
00C000
01C000
01C000
01C000
01C000
01C000
01C000
00E000
07F800
0FFE00
3FFF00
3FFF80
3FFF80
7FFF80
7FFF80
FFFF80
FFFF80
FFFF80
FFFF00
FF3F00
7E3F00
7F0380
7FE000
7FF800
3FFC00
1FFC00
07FE00
003E00
003E00
7F3E00
3F7E00
3FFC00
1FFC00
1FF800
0FE800
00C000
00C000
01C000
01C000
01C000
01C000
01C000
01C000
014000
ENDCHAR
STARTCHAR percent
ENCODING 37
SWIDTH 828 0
DWIDTH 30 0
BBX 28 32 1 -4
BITMAP
00007000
0000E000
1E00E000
7F01E000
7F81C000
FFC1C000
FF81C000
FFC1C000
FF81C000
F7C38000
F7C38380
E78387C0
F3870FE0
77870FE0
770E0FE0
7F8E0FE0
1E0E0FE0
0C1E0FE0
001E0FE0
003C0FE0
003C1CF0
001C1CE0
00181FE0
00380FC0
003007C0
00300100
00700000
00600000
00600000
00600000
00A00000
00200000
ENDCHAR
STARTCHAR ampersand
ENCODING 38
SWIDTH 522 0
DWIDTH 19 0
BBX 16 18 1 5
BITMAP
07C0
03E0
03E0
03E0
03E0
03E0
FFFF
FFFF
FFFF
FFFF
FFFF
FFFF
7FEF
03E0
03E0
03E0
03E0
03E0
ENDCHAR
STARTCHAR quotesingle
ENCODING 39
SWIDTH 300 0
DWIDTH 11 0
BBX 8 14 1 13
BITMAP
0C
FF
7F
7F
7F
7F
3E
3E
3E
3E
3E
1E
1E
10
ENDCHAR
STARTCHAR parenleft
ENCODING 40
SWIDTH 372 0
DWIDTH 13 0
BBX 12 35 1 -4
BITMAP
0010
00F0
03F0
07F0
0FE0
0FE0
1FE0
1FE0
3FE0
3FE0
7FE0
7FE0
7FE0
7F00
7E00
7E00
FE00
FE00
FE00
FE00
FE00
FE00
FE00
7E00
7E00
7E00
7F00
3F00
3F80
1FC0
1FC0
0FC0
0FE0
07E0
01C0
ENDCHAR
STARTCHAR parenright
ENCODING 41
SWIDTH 338 0
DWIDTH 12 0
BBX 9 35 1 -5
BITMAP
E000
FC00
FE00
FF00
FF80
FF80
FF80
7F80
7F80
7F80
7F80
7F80
3F80
0F80
0F80
0F80
0F80
0F80
0F80
0F80
0F80
0F80
0F80
0F80
0F00
0F00
1F00
1F00
1E00
3E00
FC00
FC00
F800
F000
E000
ENDCHAR
STARTCHAR asterisk
ENCODING 42
SWIDTH 513 0
DWIDTH 18 0
BBX 17 21 1 8
BITMAP
003000
043000
0C3800
1E3800
1E7800
0F7000
0FF000
0FF000
07E000
FFFE00
FFFF80
FFFF00
FFFF00
07E000
07F000
07F000
077800
0F7800
0F7800
0E3800
120000
ENDCHAR
STARTCHAR plus
ENCODING 43
SWIDTH 458 0
DWIDTH 17 0
BBX 13 15 2 6
BITMAP
0F00
0F80
0F80
0F80
0F80
FFF8
FFF8
FFF8
FFF8
FFF8
0F80
0F80
0F80
0F80
0F00
ENDCHAR
STARTCHAR comma
ENCODING 44
SWIDTH 361 0
DWIDTH 13 0
BBX 9 17 2 -5
BITMAP
FF80
FF80
FF80
FF80
FF80
FF80
FF80
FF80
FF80
FF80
0780
0780
0780
0780
0700
0700
0700
ENDCHAR
STARTCHAR hyphen
ENCODING 45
SWIDTH 478 0
DWIDTH 17 0
BBX 13 7 2 10
BITMAP
FFF8
FFF8
FFF8
FFF0
FFF0
FFF0
1D30
ENDCHAR
STARTCHAR period
ENCODING 46
SWIDTH 374 0
DWIDTH 13 0
BBX 11 12 1 1
BITMAP
0380
FFE0
7FE0
7FC0
7FC0
3FE0
3FE0
3FE0
3FE0
3FC0
3FC0
6000
ENDCHAR
STARTCHAR slash
ENCODING 47
SWIDTH 291 0
DWIDTH 11 0
BBX 11 32 0 -4
BITMAP
00E0
01C0
01C0
01C0
03C0
0380
0380
0380
0380
0700
0700
0700
0E00
0E00
1E00
1C00
1C00
1C00
3C00
3800
3800
3800
3000
3000
7000
7000
6000
E000
E000
E000
C000
4000
ENDCHAR
STARTCHAR zero
ENCODING 48
SWIDTH 528 0
DWIDTH 19 0
BBX 15 29 2 -2
BITMAP
0340
1FE0
3FF8
7FFC
7FFC
FFFE
FFFE
FFFE
FFFE
FFFE
FFFE
FFFE
FCFE
FCFE
F8FE
F87E
F87E
F87E
F87E
F87E
787C
7CFC
7CF8
7FF8
7FF8
3FF0
2FF0
07F0
03C0
ENDCHAR
STARTCHAR one
ENCODING 49
SWIDTH 366 0
DWIDTH 13 0
BBX 12 28 0 -1
BITMAP
00C0
03E0
1FE0
FFE0
FFE0
FFE0
6FF0
0FF0
0FE0
0FE0
0FE0
0FE0
0FE0
0FC0
07E0
07E0
07E0
07E0
07C0
07C0
07C0
07C0
07C0
07C0
07C0
07C0
04C0
0020
ENDCHAR
STARTCHAR two
ENCODING 50
SWIDTH 575 0
DWIDTH 21 0
BBX 19 31 1 -4
BITMAP
03E000
0FF800
1FFC00
3FFE00
7FFF00
7FFF00
7FFF80
7FFF80
7FFF80
7FFF80
7FFF80
7FFF80
7F7F00
7E3F00
7E3F00
7E7F00
00FF00
007E00
00FE00
00FC00
01FC00
01F800
07FFE0
2FFFE0
7FFFE0
7FFFE0
7FFBC0
7FEBC0
FECAC0
2A0A80
000080
ENDCHAR
STARTCHAR three
ENCODING 51
SWIDTH 517 0
DWIDTH 19 0
BBX 16 29 1 -2
BITMAP
0180
1FF0
3FF8
7FFC
FFFC
FFFE
FFFE
7FFF
7FFF
7FFF
7FFF
7FFF
7E7F
7E7F
7C7E
007E
01FE
03FC
03FE
01FE
003F
003F
0F9F
1F9E
0FFE
0FFC
07FC
07F8
03E8
ENDCHAR
STARTCHAR four
ENCODING 52
SWIDTH 466 0
DWIDTH 17 0
BBX 15 35 1 -8
BITMAP
7F5E
7FF8
1FF0
1FE0
3FC0
3FC0
3FC0
3FC0
3F80
3F80
3F80
7F00
3F80
7F00
3F00
3F70
3FFC
3EF8
3EF8
7E78
7E78
7E78
7FFE
7FFE
7FFE
FFFE
FFFE
83FE
007A
0070
0070
0070
0070
0070
0050
ENDCHAR
STARTCHAR five
ENCODING 53
SWIDTH 583 0
DWIDTH 21 0
BBX 18 29 2 -2
BITMAP
FFC000
FFFFC0
FFFFC0
FFFFC0
FFFFC0
FFFF80
FFFF80
FFFF80
FFFF80
FFFF80
FFFF80
FFFF80
FFFF80
FC0300
FC0000
FC0000
FFFC00
FFF800
7FFC00
07FC00
003C00
003C00
1F3C00
3F3C00
1FFC00
1FF800
0FF800
0FF000
07D000
ENDCHAR
STARTCHAR six
ENCODING 54
SWIDTH 582 0
DWIDTH 21 0
BBX 19 30 1 -3
BITMAP
008000
0FFC00
1FFE00
7FFF00
7FFF80
7FFFC0
FFFFC0
FFFFE0
FFFFC0
7FFFC0
7FFFC0
7FFFC0
7F7FC0
7F3F80
7F1F80
7E1F80
3E0780
3EC000
3FFF00
1FFF80
1F1F80
1F0F80
1F0F80
1F8F80
1FBF80
0FFF80
0FFF80
07FF80
07FF00
02A400
ENDCHAR
STARTCHAR seven
ENCODING 55
SWIDTH 624 0
DWIDTH 22 0
BBX 21 31 1 -4
BITMAP
003FF8
FFFFF8
FFFFF8
FFFFF8
FFFFF0
FFFFF0
7FFFF0
7FFFE0
7FFFE0
7FFFE0
7FFFC0
7FFFC0
7FFFC0
700FC0
000F80
001F80
001F80
001F00
003F00
003E00
007E00
007C00
007C00
00F800
00F800
00F000
01F000
01F000
01E000
03E000
004000
ENDCHAR
STARTCHAR eight
ENCODING 56
SWIDTH 459 0
DWIDTH 17 0
BBX 14 30 1 -3
BITMAP
0FC0
3FF8
7FFC
FFFC
FFFC
FFFC
FFFC
7FFC
7FFC
7FFC
7FF8
7FF8
7CF8
3CF8
3CF8
3EF8
3FF0
1FF0
1FE0
1FF0
3CF0
1CF0
1CF0
1CF0
1EF0
1FF0
1FE0
0FE0
0200
0200
ENDCHAR
STARTCHAR nine
ENCODING 57
SWIDTH 584 0
DWIDTH 21 0
BBX 19 32 1 -5
BITMAP
002000
07FC00
0FFF00
1FFF80
3FFFC0
3FFF80
7FFFC0
7FFFC0
7FFFC0
7FFFC0
FFFFC0
FFFFC0
FF3FC0
7F1FE0
7F1FC0
7FFFC0
3FFFC0
3FFFC0
1FFF80
071F80
001F80
1F1F80
7F1F00
3F3F00
3FFE00
1FFC00
1FFC00
0F7C00
00A800
00A000
004000
004000
ENDCHAR
STARTCHAR colon
ENCODING 58
SWIDTH 386 0
DWIDTH 14 0
BBX 11 30 1 1
BITMAP
0300
FFE0
7FE0
7FE0
3FC0
3FE0
7FE0
3FE0
3FE0
3FE0
3FE0
3000
0000
0000
0000
0000
0000
0000
0FC0
FFE0
7FC0
7FC0
7FE0
7FE0
7FE0
3FE0
3FC0
3FC0
3FC0
6000
ENDCHAR
STARTCHAR semicolon
ENCODING 59
SWIDTH 375 0
DWIDTH 14 0
BBX 10 37 1 -6
BITMAP
0780
FFC0
7FC0
7FC0
7FC0
7FC0
7FC0
7FC0
7FC0
3FC0
3FC0
7000
0000
0000
0000
0000
0000
0000
2000
7FC0
7FC0
7FC0
7FC0
7FC0
7FC0
7FC0
7FC0
7FC0
7FC0
03C0
03C0
03C0
03C0
03C0
03C0
0380
0040
ENDCHAR
STARTCHAR less
ENCODING 60
SWIDTH 459 0
DWIDTH 17 0
BBX 15 20 1 2
BITMAP
07FE
07FC
0FF8
0FF0
1FE0
1FC0
3FC0
7F80
FF00
FF00
7F80
7F80
7F80
1FC0
1FE0
0FF0
07F8
03FC
01FC
0008
ENDCHAR
STARTCHAR equal
ENCODING 61
SWIDTH 485 0
DWIDTH 17 0
BBX 13 12 2 10
BITMAP
FFF8
FFF8
FFF8
FFF8
1D18
0000
0000
F7D8
FFF8
FFF8
FFF8
1D10
ENDCHAR
STARTCHAR greater
ENCODING 62
SWIDTH 432 0
DWIDTH 16 0
BBX 14 20 1 3
BITMAP
0200
FF80
7F80
7F80
3FC0
1FC0
0FE0
0FF0
07F8
03FC
03F8
07F8
07F8
07F0
0FE0
1FC0
3FC0
7F80
FF00
7E00
ENDCHAR
STARTCHAR question
ENCODING 63
SWIDTH 577 0
DWIDTH 21 0
BBX 16 32 2 -4
BITMAP
0FE0
3FF0
7FFC
7FFE
FFFE
FFFF
FFFF
FFFF
FFFF
FFFF
FEFF
FC7F
7C7F
00FE
00FE
00FC
01FC
01F8
01F8
01F0
01E0
03A0
0040
0000
0000
0FE0
07E0
07E0
07E0
07E0
07E0
0760
ENDCHAR
STARTCHAR at
ENCODING 64
SWIDTH 930 0
DWIDTH 33 0
BBX 31 39 1 -8
BITMAP
001FC000
003FF800
00FFFC00
01FFFE00
03FF7F00
07E00F80
078003C0
0E1FF1E0
1E3FF1F0
1C7FFCF0
38FFFCF8
38FFFC7C
38FFFC7C
70FFFC7C
70FFFC7E
70FFF83E
F07EF83E
F07C783E
F07C783E
707C783E
7060783E
701FF83E
707FF81E
707C7C1E
787C7C1E
783CFE1C
787FFF1C
787FFFFC
3C7FFFF8
3C3FF3F0
3E12A1C0
1E000000
0F000000
0F800000
07C00800
03FFF800
01FFFC00
007FFC00
001FE000
ENDCHAR
STARTCHAR A
ENCODING 65
SWIDTH 494 0
DWIDTH 18 0
BBX 16 34 1 -8
BITMAP
FFFD
7FFE
3FFC
1FF8
1FF8
1FF8
1FF8
1FF8
1FF8
1FF8
1FF0
1FF0
1FF0
1FF0
1EF0
1EF0
1EF0
1EF0
1EF0
1FF0
1FF0
3FF0
1FF0
1FF0
1EF0
1E60
1EF0
1CE0
1CE0
14A0
1420
0040
0080
0080
ENDCHAR
STARTCHAR B
ENCODING 66
SWIDTH 517 0
DWIDTH 19 0
BBX 16 29 1 -2
BITMAP
01F0
7FFE
FFFF
7FFF
3FFF
3FFF
1FFF
3FFF
1FFF
1FFF
1FFF
1FFF
1F1E
1F1E
1F1E
1F9E
1FFE
1FFC
1FFC
0FFC
1F3C
0F3C
0F3C
0F3C
0FFC
0FFC
0FF8
09F8
0180
ENDCHAR
STARTCHAR C
ENCODING 67
SWIDTH 504 0
DWIDTH 18 0
BBX 16 31 1 -4
BITMAP
03F0
0FF8
1FFE
3FFE
7FFF
7FFF
FFFF
FFFF
FFFF
FFFF
FFFF
FFFF
FF7F
7E3F
7E3F
7E3F
7E00
7E00
7E00
3E00
3E3E
3E3E
3F7C
3F7C
1FFC
1FF8
1FF0
06F0
02C0
02A0
02A0
ENDCHAR
STARTCHAR D
ENCODING 68
SWIDTH 522 0
DWIDTH 19 0
BBX 17 31 1 -5
BITMAP
8FFC00
7FFE00
FFFF00
7FFF80
7FFF80
3FFF80
3FFF80
3FFF80
3FFF80
3FFF80
1FFF80
1F9F80
1F8F00
1F0F00
1F0F00
1F0F00
1F0F00
1F8E00
1F0E00
0F1E00
0F1E00
0FBE00
0FFE00
0FFE00
0FFC00
0CFC00
08FC00
086000
086000
084000
004000
ENDCHAR
STARTCHAR E
ENCODING 69
SWIDTH 570 0
DWIDTH 21 0
BBX 18 28 1 -2
BITMAP
FFFFC0
7FFFC0
7FFF80
3FFF80
1FFF80
3FFF80
3FFF00
3FFF00
3FFF00
1FFE00
1FFE00
1F8E00
1F8000
1F8000
1FF800
1FF800
1FF800
1FF800
1FF800
0F0000
0F0000
0F7000
0FFC00
0FFC00
0FF800
09F800
094800
094800
ENDCHAR
STARTCHAR F
ENCODING 70
SWIDTH 559 0
DWIDTH 20 0
BBX 18 29 1 -3
BITMAP
FFFFC0
7FFF80
3FFF80
3FFF00
1FFF00
1FFF00
1FFF00
1FFF00
1FFF00
1FFE00
1FFE00
0FFE00
0F8300
0FC000
0FFE00
0FFC00
0FFC00
0FFC00
0FFC00
07C200
078000
0FC000
0FC000
0FC000
0FC000
0FC000
0BC000
094000
094000
ENDCHAR
STARTCHAR G
ENCODING 71
SWIDTH 499 0
DWIDTH 18 0
BBX 16 30 1 -4
BITMAP
0FF0
3FF8
7FFE
7FFE
7FFF
FFFF
FFFF
FFFF
FFFF
FFFF
7FFF
7E7F
7C7E
7C7E
7C7E
7C01
3C80
3CFE
3EFE
3E7E
3E9E
3E3E
3F3E
1FFE
1FFE
1FFC
0EFC
0650
0550
0400
ENDCHAR
STARTCHAR H
ENCODING 72
SWIDTH 726 0
DWIDTH 26 0
BBX 26 34 0 -7
BITMAP
00125000
03F1FF40
FFE1FF80
3FE1FF00
1FE0FE00
1FE1FE00
1FE1FE00
1FE1FC00
0FE1FC00
0FE1FC00
0FE1FC00
0FE1F800
0FE1F800
07E1F800
07E1F800
07FFF800
07FFF000
07FFF000
07FFF000
07F3F000
03E3F000
03E3E000
03E3E000
03E3E000
03E3E000
03E3E000
03E7E000
0743E000
0205A000
00004000
00000000
00040000
00040000
00040000
ENDCHAR
STARTCHAR I
ENCODING 73
SWIDTH 401 0
DWIDTH 14 0
BBX 14 29 0 -2
BITMAP
3FA4
FFF8
7FF8
3FF0
1FF0
0FE0
0FF0
0FF0
0FF0
0FE0
0FE0
0FE0
0FE0
0FC0
0FE0
0FE0
0FE0
0FE0
07E0
07C0
07C0
07E0
07C0
07C0
07C0
03C0
02C0
02A0
0280
ENDCHAR
STARTCHAR J
ENCODING 74
SWIDTH 455 0
DWIDTH 16 0
BBX 16 28 -1 -2
BITMAP
01FF
01FF
01FE
00FE
00FE
00FC
00FC
00FC
00FC
00FC
00FC
00FC
00F8
00F8
00F8
00F8
04F8
18F8
F8F0
F8F0
79F0
79F0
7DF0
7FE0
7FE0
1DE0
0520
0400
ENDCHAR
STARTCHAR K
ENCODING 75
SWIDTH 580 0
DWIDTH 21 0
BBX 20 29 0 -2
BITMAP
0D4A00
FFCFF0
3FCFE0
1FCFC0
1FCF80
0FCF00
0FCE00
0FDE00
07DE00
07FE00
07FC00
07FC00
07FE00
07FE00
07FE00
07FE00
07FE00
03FE00
03FE00
03FE00
03FE00
03FE00
03CF00
03CF00
03CF00
03C700
03CF00
014D00
002100
ENDCHAR
STARTCHAR L
ENCODING 76
SWIDTH 416 0
DWIDTH 15 0
BBX 16 30 0 -3
BITMAP
8088
7FF0
3FE0
1FC0
3FC0
1F80
1FC0
1FC0
1FC0
1FC0
1FC0
1F80
1FC0
0FC0
0FC0
0FC0
0FC0
0FC0
0FC0
0FC0
0FC0
0FC0
0FFF
07FF
07FF
07FE
07FE
025E
0254
0004
ENDCHAR
STARTCHAR M
ENCODING 77
SWIDTH 740 0
DWIDTH 27 0
BBX 25 29 1 -2
BITMAP
07E7E000
FFC3FF80
7FE7FF00
7FE7FC00
3FE7FC00
3FF7FC00
3FF7FC00
3FFFF800
3FFFFC00
1FFFF800
1FFFF800
1FFFF800
1FFFF800
1FFFF800
1FFFF800
1FFEF800
0FFFF800
0FBFF800
0FBEF800
0FBCF800
0F9CF800
07FCF800
07DCF000
07DCF800
07DDF000
07C9F000
054B3000
07001000
00002000
ENDCHAR
STARTCHAR N
ENCODING 78
SWIDTH 610 0
DWIDTH 22 0
BBX 20 33 1 -6
BITMAP
009800
7F9FC0
FF8FF0
7F8FE0
3FCFC0
3FCFC0
3FEF80
3FEF80
3FEF80
3FFF80
1FFF80
1FFF80
1FFF80
1FFF80
1FFF00
1FFF00
1FFF00
0FFF00
0F7F00
0F7F00
0F7F00
0F3F00
0F3F00
0F3F00
0FBF00
0F9E00
079E00
079E00
069E00
048E00
049000
049000
049000
ENDCHAR
STARTCHAR O
ENCODING 79
SWIDTH 504 0
DWIDTH 18 0
BBX 17 29 1 -3
BITMAP
0FF000
1FFC00
3FFE00
7FFF00
FFFF00
FFFF00
FFFF00
FFFF80
FFFF00
FFFF00
FFFF00
7E7F00
7E7F00
7E7F00
7C3F00
7C3F00
7C3F00
7E3F00
3E3E00
3E7E00
3E7E00
3E7C00
3F7C00
3FFC00
1FFC00
1FF800
066800
026800
024000
ENDCHAR
STARTCHAR P
ENCODING 80
SWIDTH 545 0
DWIDTH 20 0
BBX 18 29 1 -2
BITMAP
005000
FFFF00
7FFF80
3FFF80
3FFF80
1FFFC0
1FFFC0
1FFF80
1FFF80
1FFF80
1FFF80
1FFF80
0FCF80
0FC780
0FC780
0FC780
0FC700
0FFF00
07FF00
07FF00
07FE00
07C000
07C000
07C000
07C000
07C000
07C000
02C000
02C000
ENDCHAR
STARTCHAR Q
ENCODING 81
SWIDTH 520 0
DWIDTH 19 0
BBX 17 31 1 -5
BITMAP
03F000
0FF800
3FFE00
7FFF00
7FFF00
7FFF80
FFFF80
FFFF80
FFFF80
FFFF80
FFBF80
FF1F80
FF1F80
7F1F80
7F1F80
7F1F80
3F1F00
3F1F00
3F1F00
3F3F00
3FBF00
1FBF00
1FFE00
0FFE00
07FF00
03FF80
01FF80
008F00
000600
000200
000200
ENDCHAR
STARTCHAR R
ENCODING 82
SWIDTH 599 0
DWIDTH 22 0
BBX 20 29 1 -2
BITMAP
01E000
3FFF00
FFFFC0
7FFFE0
3FFFF0
1FFFF0
1FFFF0
0FFFF0
0FFFF0
0FFFF0
0FFFF0
0FCFF0
0FC7E0
0FC3E0
07C7E0
0FC7E0
07FFC0
07FFC0
07FFC0
07FF80
07FF80
07CF80
07CF80
03CF80
03CF80
03C780
03C7C0
03A7C0
02A3C0
ENDCHAR
STARTCHAR S
ENCODING 83
SWIDTH 504 0
DWIDTH 18 0
BBX 17 30 1 -3
BITMAP
008000
07F800
1FFC00
3FFE00
7FFF00
7FFF80
7FFF00
FFFF00
FFFF00
FFFF00
FFFF00
FFFF00
FE7F00
FE7F00
FE0500
7FE000
7FF000
3FFC00
1FFC00
07FE00
007E00
1E7E00
7E3E00
7E7E00
3FFC00
3FF800
1FF800
0FF000
02D000
004000
ENDCHAR
STARTCHAR T
ENCODING 84
SWIDTH 622 0
DWIDTH 22 0
BBX 20 30 1 -4
BITMAP
BFFF80
7FFFF0
7FFFF0
3FFFE0
3FFFC0
3FFFE0
1FFFE0
1FFFE0
1FFFC0
1FFFC0
1FFFC0
1FFFC0
18FC40
00F800
00FC00
00FC00
00FC00
00F800
00F800
00FC00
00F800
00F800
00F800
00F800
00F800
00F800
00F800
00F800
00F800
008000
ENDCHAR
STARTCHAR U
ENCODING 85
SWIDTH 637 0
DWIDTH 23 0
BBX 23 29 0 -2
BITMAP
03E400
FFC7F0
3FC7FE
1FC7F8
1FC7F0
1FC7F0
1FC7F0
1FC7F0
1FC7E0
0FC7E0
0FC7E0
0FC7E0
0FC7C0
0FC7C0
0FC7C0
0FC7C0
0FC7C0
0FC7C0
0FC7C0
0FCFC0
0FCFC0
07CFC0
07FF80
07FF80
07FF80
07DF00
01D200
019400
011400
ENDCHAR
STARTCHAR V
ENCODING 86
SWIDTH 570 0
DWIDTH 21 0
BBX 22 30 -1 -3
BITMAP
01C784
FF87F8
1FC7F0
0FC7F0
0FC7E0
07C7E0
07CFC0
07CFC0
07CFC0
07CFC0
07CF80
07CF80
07DF80
07DF80
07DF00
07DF00
07DF00
03DF00
03DF00
03FE00
03FE00
03FE00
03FE00
01FC00
01FC00
01FC00
01FC00
01F800
00E800
005800
ENDCHAR
STARTCHAR W
ENCODING 87
SWIDTH 777 0
DWIDTH 28 0
BBX 28 28 0 -1
BITMAP
000F1400
03C71F80
3FCF1FF0
FFCF1FC0
1FCFBF80
0FCFBF00
0FDFBF00
07DFBE00
07FFFE00
07FFFC00
03FFFC00
03FFF800
03FFF800
01FFF800
01FFF800
00FFF800
00FFF800
00FFF000
00FFF000
007FF000
007FF000
0079F000
0079E000
0039E000
0039C000
0039C000
002AC000
00080000
ENDCHAR
STARTCHAR X
ENCODING 88
SWIDTH 587 0
DWIDTH 21 0
BBX 22 29 0 -2
BITMAP
008800
7FCFC0
BFEFFC
1FCFE0
0FCFC0
07FF80
07FF00
03FF00
03FE00
01FE00
01FE00
01FE00
01FE00
01FC00
01FC00
00FC00
01FC00
00FC00
00F800
00FC00
01FC00
01FC00
01FC00
01FE00
01DE00
01DE00
03DE00
03DF00
020100
ENDCHAR
STARTCHAR Y
ENCODING 89
SWIDTH 688 0
DWIDTH 25 0
BBX 25 29 0 -2
BITMAP
0BC08000
FFE1F000
3FE1FF00
0FF1FF80
07F1FC00
03FBF800
01FBF000
00FFF000
007FE000
007FC000
007FC000
003FC000
003FC000
003FC000
001FC000
001FC000
000FC000
000F8000
000F8000
000F8000
000F8000
00078000
00078000
00078000
00078000
00078000
00078000
00078000
00040000
ENDCHAR
STARTCHAR Z
ENCODING 90
SWIDTH 695 0
DWIDTH 25 0
BBX 24 28 1 -1
BITMAP
03FC00
3FFFF0
FFFFFF
7FFFFE
7FFFFC
3FFFFC
3FFFF8
1FFFF8
1FFFF0
1FFFF0
0FFFE0
0FFFE0
0F3FC0
0C3F80
087F00
007E00
00FC00
00F800
00F800
01F000
01F000
01E000
03FF00
03FF00
07FF00
07FF00
07FE00
024C00
ENDCHAR
STARTCHAR bracketleft
ENCODING 91
SWIDTH 410 0
DWIDTH 15 0
BBX 13 32 2 -1
BITMAP
7FE0
7FF0
7FF0
7FF0
7FF0
7FF0
7FF0
7E10
FC00
FC00
FC00
FC00
FC00
FC00
FC00
FC00
FC00
7C00
FC00
FC00
FC00
FC00
FC00
FC00
FC00
7C00
7C00
7FF8
7FF0
7FE0
7DE0
61C0
ENDCHAR
STARTCHAR backslash
ENCODING 92
SWIDTH 292 0
DWIDTH 11 0
BBX 11 32 0 -4
BITMAP
E000
6000
7000
7000
7000
3800
7800
3800
3800
3800
1C00
1C00
1E00
0E00
0E00
0E00
0F00
0700
0700
0700
0380
0300
0380
0180
0180
01C0
01C0
00C0
00E0
00E0
00A0
0080
ENDCHAR
STARTCHAR bracketright
ENCODING 93
SWIDTH 407 0
DWIDTH 15 0
BBX 13 32 0 -1
BITMAP
3FF0
7FF0
7FF0
7FF0
7FF0
7FF0
7FF0
03F0
01F0
01F0
01F0
01F0
01F0
01F0
01F0
01F0
01F0
01F8
01F8
01F8
01F8
01F8
01F0
01F8
01F0
01F0
01F0
FFF0
7FF0
7FF0
7FF0
5030
ENDCHAR
STARTCHAR asciicircum
ENCODING 94
SWIDTH 523 0
DWIDTH 19 0
BBX 17 13 1 25
BITMAP
07F000
0FF000
0FF800
1FF800
1FFC00
1F7C00
3E7E00
3E3E00
7C3F00
7C1F80
F80F00
300E00
100400
ENDCHAR
STARTCHAR underscore
ENCODING 95
SWIDTH 452 0
DWIDTH 16 0
BBX 12 6 2 -1
BITMAP
F830
FFF0
FFF0
FFF0
FFF0
FFF0
ENDCHAR
STARTCHAR grave
ENCODING 96
SWIDTH 444 0
DWIDTH 16 0
BBX 12 9 2 27
BITMAP
1800
3C00
3E00
3F00
FF80
7FE0
0FF0
01F0
0010
ENDCHAR
STARTCHAR a
ENCODING 97
SWIDTH 479 0
DWIDTH 17 0
BBX 18 30 0 -3
BITMAP
07EFC0
FFFF00
3FFE00
1FFE00
0FFE00
0FFE00
0FFE00
0FFE00
0FFE00
0FFE00
0FFC00
0FFC00
0FFC00
0FFC00
0FFC00
0FFC00
0FFE00
0F3C00
0F3E00
1F3E00
1F3E00
1FFC00
0FFC00
1FFC00
1FFC00
0F3C00
0F3C00
0F3C00
0E3C00
0E0400
ENDCHAR
STARTCHAR b
ENCODING 98
SWIDTH 610 0
DWIDTH 22 0
BBX 20 29 1 -3
BITMAP
1FFFC0
FFFFE0
7FFFE0
3FFFF0
3FFFF0
1FFFF0
0FFFF0
1FFFF0
0FFFF0
0FFFF0
0FFFF0
0FC7E0
0FC7E0
0FE7E0
0FC7C0
0FFFC0
07FF80
07FF80
07FF80
07FF80
07C7C0
07C7C0
03C7C0
07C780
03F780
03FF80
03FF00
025F00
000700
ENDCHAR
STARTCHAR c
ENCODING 99
SWIDTH 534 0
DWIDTH 19 0
BBX 18 29 1 -2
BITMAP
01F000
0FFC00
1FFE00
3FFF00
7FFF80
7FFFC0
FFFF80
FFFF80
FFFF80
FFFF80
FFFF80
FFFF80
7FBF80
7F1F80
7F1F80
7F1F80
7F0180
7F0000
3F0000
3F0000
3F1C00
3F1F00
3F3E00
1FBE00
1FFE00
0FFC00
0FFC00
0EB000
015000
ENDCHAR
STARTCHAR d
ENCODING 100
SWIDTH 573 0
DWIDTH 21 0
BBX 20 31 0 -4
BITMAP
002000
7FFF00
BFFF80
3FFFC0
3FFFE0
1FFFF0
1FFFF0
1FFFF0
0FFFF0
0FFFF0
0FFFF0
0FFFF0
07FFF0
07E7F0
07E3E0
07E3E0
07E3E0
03E3C0
03E3C0
03E3C0
03E3C0
03E380
03E780
03E780
03EF80
03FF80
03FF00
03FF00
031F00
011E00
010800
ENDCHAR
STARTCHAR e
ENCODING 101
SWIDTH 632 0
DWIDTH 23 0
BBX 22 29 0 -3
BITMAP
1FFFFC
FFFFF8
3FFFF8
3FFFF0
1FFFF0
0FFFE0
1FFFE0
0FFFE0
0FFFE0
0FFFE0
0FFFC0
0FEFC0
0FE040
07E000
07E000
07FF00
07FF00
07FF00
07FF00
07FF00
03E100
03E000
03FC00
03FF80
03FF80
01FF80
013F80
012100
000080
ENDCHAR
STARTCHAR f
ENCODING 102
SWIDTH 559 0
DWIDTH 20 0
BBX 18 30 1 -4
BITMAP
FFFFC0
7FFF80
3FFF80
3FFF00
1FFF00
1FFF00
1FFF00
1FFF00
1FFF00
1FFE00
1FFE00
0FFE00
0F8300
0F8000
0FFC00
0FFC00
0FFC00
0FFC00
0FFC00
07C200
0F8000
0FC000
0FC000
0FC000
0FC000
0FC000
0BC000
094000
094000
014000
ENDCHAR
STARTCHAR g
ENCODING 103
SWIDTH 546 0
DWIDTH 20 0
BBX 18 30 1 -3
BITMAP
010000
1FF800
1FFE00
7FFF00
FFFF80
FFFF80
FFFFC0
FFFFC0
FFFFC0
FFFFC0
FFFFC0
7FFFC0
7F7FC0
7E3F80
7E3F80
7E1F80
7E0F80
3E0000
3E7800
3F7F80
1F3F80
1F3F80
1F2F00
1F0F00
1FBF00
1FFF00
0FFF00
0FFF00
07FE00
02A400
ENDCHAR
STARTCHAR h
ENCODING 104
SWIDTH 730 0
DWIDTH 26 0
BBX 26 29 0 -2
BITMAP
00F1F000
DFF1FFC0
3FE1FF80
1FE1FF00
1FE0FF00
1FE1FE00
1FE1FE00
1FE1FC00
0FE1FC00
0FE1FC00
0FE1FC00
0FE1FC00
0FE1F800
07E1F800
07EBF800
07FFF800
07FFF000
07FFF000
07FFF000
07E3F000
03E3F000
03E3F000
03E3F000
03E3E000
03E3E000
03E7E000
03E3E000
0703E000
00016000
ENDCHAR
STARTCHAR i
ENCODING 105
SWIDTH 412 0
DWIDTH 15 0
BBX 14 28 0 -1
BITMAP
06C0
FFFC
3FF8
3FF8
0FF0
0FF0
0FF0
0FF0
0FE0
0FE0
0FE0
0FE0
0FE0
0FE0
0FE0
07E0
07E0
07E0
07E0
07E0
07C0
07C0
07C0
07C0
03C0
03C0
02C0
02C0
ENDCHAR
STARTCHAR j
ENCODING 106
SWIDTH 458 0
DWIDTH 17 0
BBX 17 29 -1 -2
BITMAP
05C000
03FE00
03FF80
01FE00
01FE00
01FE00
01FE00
00FC00
00FC00
00FC00
00FC00
00FC00
00FC00
00FC00
00FC00
00FC00
00FC00
00FC00
18FC00
F8FC00
FCFC00
7CF800
7CF800
7FF800
3FF800
3FF000
1FF000
02D000
001000
ENDCHAR
STARTCHAR k
ENCODING 107
SWIDTH 636 0
DWIDTH 23 0
BBX 23 29 0 -2
BITMAP
00B6E0
1FE7FE
FFE7F0
3FE7E0
1FE7C0
1FE7C0
0FEF80
0FEF80
07EF00
07EF00
07EF00
07EE00
07EE00
03EE00
03FC00
03FC00
03FC00
03FE00
03FE00
01FF00
01FF00
01EF00
01EF80
01E780
01E780
01E3C0
01E3C0
00A360
000100
ENDCHAR
STARTCHAR l
ENCODING 108
SWIDTH 438 0
DWIDTH 16 0
BBX 17 30 0 -3
BITMAP
005E00
FFF800
3FF000
1FF000
1FE000
1FE000
1FE000
0FE000
0FE000
0FE000
0FE000
0FE000
0FE000
07E000
07E000
07E000
07E000
07C000
07C000
07E000
07E000
07E000
03FF80
03FF00
03FF00
03FF00
03DF00
021600
020600
030000
ENDCHAR
STARTCHAR m
ENCODING 109
SWIDTH 770 0
DWIDTH 28 0
BBX 26 29 1 -2
BITMAP
00337800
07E3FFC0
7FE3FF80
FFF3FE00
7FF3FE00
3FF7FE00
3FF7FC00
3FF7FC00
3FFFFC00
3FFFFC00
1FFFF800
1FFFF800
1FFFF800
1FFFF800
1FFFF800
1FFFF800
1FFFF000
0FFFF000
0FBDF000
0FBDF000
0FBDF000
0FBFE000
0FBBE000
0F9BE000
0F9BE000
0F93C000
0492C000
04004000
04004000
ENDCHAR
STARTCHAR n
ENCODING 110
SWIDTH 664 0
DWIDTH 24 0
BBX 24 31 0 -4
BITMAP
83E201
7FE3FE
3FE3FC
3FF3FC
1FF1F8
1FF1F8
1FFBF8
1FFBF0
1FFBF0
1FFBF0
1FFFF0
1FFFF0
1FFFF0
0FFFF0
0FFFE0
0FFFE0
0FFFE0
0FFFE0
0FFFE0
0FFFE0
07FFC0
079FC0
079FC0
07DFC0
079FC0
078F80
078F80
078F80
074E80
000B00
000200
ENDCHAR
STARTCHAR o
ENCODING 111
SWIDTH 545 0
DWIDTH 20 0
BBX 18 30 1 -3
BITMAP
009000
0FFC00
1FFF00
3FFF00
7FFF80
FFFFC0
FFFFC0
FFFFC0
FFFFC0
FFFFC0
FFFFC0
7FFFC0
7F3FC0
7E3FC0
7E3FC0
7E3F80
7E3F80
7E1F80
3E3F80
3E3F00
3E3F00
3E3F00
3F3E00
1F7E00
1FFE00
1FFE00
0BFC00
027800
002400
000400
ENDCHAR
STARTCHAR p
ENCODING 112
SWIDTH 557 0
DWIDTH 20 0
BBX 18 28 1 -2
BITMAP
FFFF00
FFFF80
3FFF80
3FFFC0
1FFFC0
1FFFC0
1FFFC0
1FFFC0
1FFFC0
1FFFC0
1FFFC0
1FCF80
1FC780
0FC780
0FCF80
0FCF80
0FDF00
0FFF00
0FFF00
0FFE00
07D400
0FC000
07C000
07C000
07C000
07C000
07C000
04C000
ENDCHAR
STARTCHAR q
ENCODING 113
SWIDTH 562 0
DWIDTH 20 0
BBX 19 32 1 -5
BITMAP
00F000
07FE00
1FFE00
3FFF80
7FFF80
7FFFC0
7FFFC0
FFFFC0
FFFFC0
FFFFC0
FFFFC0
FF9FE0
FF8FC0
7F1FC0
7F0FC0
7F0FC0
7F0FC0
3F07C0
7F0FC0
3F8FC0
3F9FC0
1F9F80
1FFF80
0FFF80
0FFF80
07FF80
03FFE0
01FFC0
0007C0
000180
000100
000100
ENDCHAR
STARTCHAR r
ENCODING 114
SWIDTH 616 0
DWIDTH 22 0
BBX 21 30 1 -3
BITMAP
014000
3FFF00
FFFFC0
7FFFF0
3FFFF0
1FFFF8
1FFFF0
0FFFF0
0FFFF0
0FFFF0
0FFFF0
0FEFF0
0FC7E0
0FC3E0
0FC7E0
0FC7E0
0FFFE0
0FFFE0
07FFC0
07FFC0
07FF00
07CF00
07CF80
07CF80
07CF80
07CF00
07CF80
07CF80
054780
000080
ENDCHAR
STARTCHAR s
ENCODING 115
SWIDTH 481 0
DWIDTH 17 0
BBX 16 29 1 -2
BITMAP
0180
0FF0
1FFC
3FFE
7FFE
7FFF
FFFE
FFFE
FFFE
FFFE
FFFE
FFFE
FEFE
FE7E
FE3E
7F00
7FE0
7FF0
3FF8
0FF8
03F8
007C
3E7C
7E78
3FF8
3FF0
1FF0
1FE0
0FA0
ENDCHAR
STARTCHAR t
ENCODING 116
SWIDTH 683 0
DWIDTH 25 0
BBX 22 32 1 -5
BITMAP
01FF80
3FFFFC
FFFFFC
7FFFF8
7FFFF8
3FFFF0
3FFFF0
1FFFF0
1FFFF0
1FFFF0
1FFFF0
1FFFF0
1F7EF0
1C7E10
107E00
007E00
007E00
007E00
007E00
007E00
007E00
007E00
003E00
003E00
003E00
003E00
003E00
003E00
003E00
003E00
000600
000200
ENDCHAR
STARTCHAR u
ENCODING 117
SWIDTH 708 0
DWIDTH 26 0
BBX 26 26 0 0
BITMAP
FFF1E800
3FF1FF00
1FE1FFC0
1FF1FF00
1FE1FE00
1FE1FE00
0FF1FE00
0FF1FC00
0FF1FC00
0FF1FC00
07F1F800
07F1F800
07F1F800
07E1F800
07E1F800
07E3F800
07F1F800
07F1F800
03F3F000
07F3F000
03F3F000
01FFF000
01FFF000
01FFE000
01F7E000
0073C000
ENDCHAR
STARTCHAR v
ENCODING 118
SWIDTH 644 0
DWIDTH 23 0
BBX 23 29 0 -2
BITMAP
006200
FFC3FE
1FC3F8
1FC3F8
0FC7F0
0FC7F0
0FE7E0
07E7E0
07E7E0
07E7E0
07E7C0
07E7C0
03E7C0
03E7C0
03E7C0
03F780
03FF80
01FF80
01FF80
00FF80
00FF00
00FF00
00FF00
007E00
007E00
007E00
003E00
003E00
003800
ENDCHAR
STARTCHAR w
ENCODING 119
SWIDTH 704 0
DWIDTH 25 0
BBX 26 27 0 0
BITMAP
000C4000
1F9C3C00
FF9E3FC0
3F9E7F00
1F9E7E00
0F9E7E00
0F9F7C00
07FF7C00
07FFF800
07FFF800
07DFF800
07FFF000
03FFF000
01FFF000
01FFF000
01FFF000
01FFE000
00FFE000
00FFE000
00FBE000
00FBE000
007BE000
007BE000
007BE000
0039E000
0039E000
0011E000
ENDCHAR
STARTCHAR x
ENCODING 120
SWIDTH 599 0
DWIDTH 22 0
BBX 22 29 0 -2
BITMAP
008800
FFC7E0
3FEFFC
1FCFE0
07CFC0
07FF80
03FF00
03FF00
01FE00
01FE00
01FE00
01FE00
00FE00
01FC00
00FC00
00FC00
00FC00
007C00
00FC00
00FC00
00FC00
00FC00
01FC00
01FE00
01DE00
01CE00
03CF00
03AB00
020100
ENDCHAR
STARTCHAR y
ENCODING 121
SWIDTH 604 0
DWIDTH 22 0
BBX 22 30 0 -3
BITMAP
000400
FF87A0
3FC7FC
1FC7F0
07CFE0
07EFC0
03FF80
03FF00
01FF00
01FE00
00FE00
00FE00
00FE00
00FE00
007E00
007E00
007E00
007E00
007C00
003C00
003C00
007C00
007C00
007C00
007C00
007C00
007C00
003C00
002400
002000
ENDCHAR
STARTCHAR z
ENCODING 122
SWIDTH 622 0
DWIDTH 22 0
BBX 20 29 1 -2
BITMAP
07FE00
7FFFE0
FFFFF0
7FFFF0
7FFFE0
3FFFE0
3FFFC0
1FFFC0
1FFFC0
1FFFC0
0FFF80
0FFF80
0F3F00
0C7E00
087C00
007C00
00F800
00F800
00F000
00F000
01F000
01E000
01DC00
03FF00
03FE00
03FE00
03FE00
037E00
020200
ENDCHAR
STARTCHAR braceleft
ENCODING 123
SWIDTH 372 0
DWIDTH 13 0
BBX 12 35 1 -4
BITMAP
0010
00F0
03F0
07F0
0FE0
0FE0
1FE0
1FE0
3FE0
3FE0
7FE0
7FE0
7FE0
7F00
7E00
7E00
FE00
FE00
FE00
FE00
FE00
FE00
FE00
7E00
7E00
7E00
7F00
3F00
3F80
1FC0
1FC0
0FC0
0FE0
07E0
01C0
ENDCHAR
STARTCHAR bar
ENCODING 124
SWIDTH 208 0
DWIDTH 8 0
BBX 3 33 2 -4
BITMAP
60
E0
E0
E0
E0
E0
E0
E0
60
E0
E0
E0
E0
E0
E0
E0
E0
E0
E0
E0
E0
E0
E0
60
60
60
E0
E0
E0
E0
E0
E0
A0
ENDCHAR
STARTCHAR braceright
ENCODING 125
SWIDTH 338 0
DWIDTH 12 0
BBX 9 35 1 -5
BITMAP
E000
FC00
FE00
FF00
FF80
FF80
FF80
7F80
7F80
7F80
7F80
7F80
3F80
0F80
0F80
0F80
0F80
0F80
0F80
0F80
0F80
0F80
0F80
0F80
0F00
0F00
1F00
1F00
1E00
3E00
FC00
FC00
F800
F000
E000
ENDCHAR
STARTCHAR asciitilde
ENCODING 126
SWIDTH 535 0
DWIDTH 19 0
BBX 17 8 1 20
BITMAP
103800
383E00
7CFF00
FFFF80
7FFF80
3FFF00
1F8E00
0E0400
ENDCHAR
STARTCHAR exclamdown
ENCODING 161
SWIDTH 347 0
DWIDTH 13 0
BBX 11 44 1 1
BITMAP
6000
3FC0
3FC0
3FC0
3FC0
3FC0
3FC0
7FC0
7FC0
7FC0
FFC0
0FC0
0000
0000
0000
0300
1E00
1F00
1F00
1F00
1F00
1F00
1F00
1F00
1F00
1F00
1F80
3F00
3F00
3F00
3F80
7F80
7F80
7F80
7F80
7F80
3FC0
7F80
7FC0
FFC0
FFE0
FFC0
3F80
0800
ENDCHAR
STARTCHAR cent
ENCODING 162
SWIDTH 552 0
DWIDTH 20 0
BBX 18 52 1 -14
BITMAP
004000
00C000
00C000
00C000
00C000
00C000
00C000
00C000
00C000
00C000
00C000
00F000
07FC00
1FFE00
3FFF00
7FFF80
7FFFC0
FFFF80
FFFF80
FFFF80
FFFF80
FFFF80
7FFF80
7FBF80
7F1F80
7F1F80
7F1F80
7F0080
3F0000
3F0000
3F0000
3F1C00
1F1F00
1F3E00
1FBE00
1FFE00
0FFE00
0FFC00
0FF800
01D000
00C000
00C000
00C000
00C000
00C000
00C000
00C000
00C000
00C000
00C000
00C000
004000
ENDCHAR
STARTCHAR sterling
ENCODING 163
SWIDTH 589 0
DWIDTH 21 0
BBX 18 30 2 -3
BITMAP
010000
1FF800
3FFC00
7FFF00
FFFF00
FFFF80
FFFF80
FFFFC0
FFFFC0
FFFFC0
FFFFC0
FFFFC0
FE7F80
FE3F80
FE3F80
7E3F00
7C1F80
FF8000
FF8000
FF8000
3F0000
3F0100
3FFE00
3FFE00
3FFE00
3FFC00
3EFC00
26FC00
069800
001000
ENDCHAR
STARTCHAR yen
ENCODING 165
SWIDTH 692 0
DWIDTH 25 0
BBX 26 29 -1 2
BITMAP
FFE0C000
7FE0FFC0
1FE1FF80
07F1FE00
03F1FE00
03FBFC00
01FBF800
00FFF000
007FE000
007FE000
003FE000
003FFF80
1FFFFF00
1FFFFF00
001FC000
001FC000
000FC000
1FFFFF80
1FFFFF80
002FC000
000FC000
000FC000
000FC000
000FC000
000FC000
0007C000
0007C000
00064000
00040000
ENDCHAR
STARTCHAR brokenbar
ENCODING 166
SWIDTH 201 0
DWIDTH 7 0
BBX 3 33 2 -4
BITMAP
C0
E0
E0
E0
E0
E0
E0
E0
E0
E0
E0
E0
00
00
00
00
00
00
00
00
E0
E0
E0
E0
E0
E0
E0
E0
60
E0
E0
E0
A0
ENDCHAR
STARTCHAR section
ENCODING 167
SWIDTH 477 0
DWIDTH 17 0
BBX 16 34 1 -7
BITMAP
03E0
07F8
0FFC
1FFE
3FFF
3FFE
3FFE
3FFC
3FFC
3FFC
3F7C
3E38
3F28
3FC0
1FF8
3FF8
7FF8
FC7C
FC7C
FC78
FC78
FC70
FFF0
7FF0
7FE0
3FE0
07F0
05F0
7CE0
7DE0
3FE0
3FC0
1FC0
0900
ENDCHAR
STARTCHAR dieresis
ENCODING 168
SWIDTH 633 0
DWIDTH 23 0
BBX 18 9 2 29
BITMAP
000300
7E3FC0
7E1FC0
FE1FC0
FF1FC0
FF1FC0
FE1FC0
FE1FC0
7E1FC0
ENDCHAR
STARTCHAR copyright
ENCODING 169
SWIDTH 783 0
DWIDTH 28 0
BBX 26 31 1 -3
BITMAP
001E0000
00FFC000
03FFF000
07803800
0E0F0C00
1C3F8600
3C7FC300
38FFE300
71FFE180
71FFE180
61FFE080
E1FFE0C0
E1FFE0C0
E1FFE0C0
E1F3E0C0
E0F1E0C0
E0F1E0C0
E0F000C0
E0F000C0
60F00180
60F1C180
7073C180
30FBC300
387FC300
387F8600
1C3F0E00
0E151C00
07807800
03FFF000
01FFE000
003F0000
ENDCHAR
STARTCHAR guillemotleft
ENCODING 171
SWIDTH 759 0
DWIDTH 27 0
BBX 26 20 1 2
BITMAP
03FC7F80
07F8FF00
07F0FE00
0FE1FE00
1FE3FC00
1FC3F800
3F87F800
7F87F000
7F0FF000
FE0FE000
FE0FE000
7F07F000
3F83F000
1F83F800
1FC1F800
0FE0FC00
07F0FE00
03F07F00
01F83F80
00140340
ENDCHAR
STARTCHAR uni00AD
ENCODING 173
SWIDTH 446 0
DWIDTH 16 0
BBX 12 5 2 10
BITMAP
FFF0
FFF0
FFF0
FFF0
3E30
ENDCHAR
STARTCHAR registered
ENCODING 174
SWIDTH 780 0
DWIDTH 28 0
BBX 26 29 1 -2
BITMAP
00FF8000
03F0E000
07803000
0F000C00
1FFF0400
3FFFC600
3BFFE300
71FFE100
70FFE180
60FFE180
E0FFE180
E0FFE1C0
E0F1E1C0
E0F1E1C0
40F9E1C0
40FFC1C0
407FC180
607F8080
607B8080
703DC080
303DE180
383DE100
1C3DE300
1E3CE200
0F0AAE00
07C01C00
03F9F800
01FFF000
007FC000
ENDCHAR
STARTCHAR macron
ENCODING 175
SWIDTH 446 0
DWIDTH 16 0
BBX 12 5 2 10
BITMAP
FFF0
FFF0
FFF0
FFF0
3E30
ENDCHAR
STARTCHAR acute
ENCODING 180
SWIDTH 439 0
DWIDTH 16 0
BBX 12 9 2 27
BITMAP
0180
03C0
0780
0FC0
3FF0
7FE0
FF00
F000
8000
ENDCHAR
STARTCHAR mu
ENCODING 181
SWIDTH 679 0
DWIDTH 24 0
BBX 26 27 -1 -1
BITMAP
FFF1F800
3FF0FF00
1FE0FFC0
1FF1FF00
1FF0FE00
0FF1FF00
0FF0FE00
0FF0FE00
0FF1FC00
07F1FC00
07F1FC00
07F1F800
07F1F800
07F1F800
07F1F800
07F1F800
07F1F800
07F1F800
03F1F800
03F3F000
01F3F000
01FFF000
01FFF000
01FFF000
01F7E000
0052E000
00010000
ENDCHAR
STARTCHAR paragraph
ENCODING 182
SWIDTH 591 0
DWIDTH 21 0
BBX 20 29 1 -2
BITMAP
001800
3FFFF0
7FFFF0
FFFFE0
FFFFC0
FFFF80
FFF380
FFF380
FFF380
FFF380
7FF380
7FF380
7FF380
3FF380
3FF380
3FF380
1FF380
006300
006300
006300
006300
006300
006300
006300
006300
006300
006200
006200
006200
ENDCHAR
STARTCHAR periodcentered
ENCODING 183
SWIDTH 388 0
DWIDTH 14 0
BBX 11 11 1 8
BITMAP
FFE0
7FE0
7FE0
3FE0
3FE0
3FE0
3FE0
3FE0
3FE0
3FE0
3C20
ENDCHAR
STARTCHAR cedilla
ENCODING 184
SWIDTH 270 0
DWIDTH 10 0
BBX 6 12 2 -12
BITMAP
70
70
E0
E0
C0
FC
FC
1C
1C
7C
FC
FC
ENDCHAR
STARTCHAR guillemotright
ENCODING 187
SWIDTH 767 0
DWIDTH 28 0
BBX 26 21 1 2
BITMAP
02000000
FF8F2000
7F87E000
7F83F000
3FC3F800
1FC1FC00
0FE0FE00
0FF07F00
07F07F00
03F87F80
03F83F80
07F03FC0
07F87F80
07F07F80
0FE0FF00
1FC0FF00
3FC1FE00
7F81FC00
FF03F800
7E07F800
000BF000
ENDCHAR
STARTCHAR Agrave
ENCODING 192
SWIDTH 494 0
DWIDTH 18 0
BBX 19 45 -2 -8
BITMAP
080000
1C0000
1F0000
3F8000
7FC000
FFF000
07F000
00F000
001000
000000
000000
1FFFA0
0FFFC0
07FF80
03FF00
03FF00
03FF00
03FF00
03FF00
03FF00
03FF00
03FE00
03FE00
03FE00
03FE00
03DE00
03DE00
03DE00
03DE00
03DE00
03FE00
03FE00
07FE00
03FE00
03FE00
03DE00
03CC00
03DE00
039C00
039C00
029400
028400
000800
001000
001000
ENDCHAR
STARTCHAR Aacute
ENCODING 193
SWIDTH 494 0
DWIDTH 18 0
BBX 20 45 1 -8
BITMAP
000180
0003C0
0007C0
000FC0
001FF0
007FE0
00FF00
007800
004000
000000
000000
FFFD00
7FFE00
3FFC00
1FF800
1FF800
1FF800
1FF800
1FF800
1FF800
1FF800
1FF000
1FF000
1FF000
1FF000
1EF000
1EF000
1EF000
1EF000
1EF000
1FF000
1FF000
3FF000
1FF000
1FF000
1EF000
1E6000
1EF000
1CE000
1CE000
14A000
142000
004000
008000
008000
ENDCHAR
STARTCHAR Acircumflex
ENCODING 194
SWIDTH 494 0
DWIDTH 18 0
BBX 16 49 1 -8
BITMAP
0A60
0FE0
1FF0
1FF0
1FF8
3FF8
3EFC
7C7C
783E
F01E
F01F
E00E
4004
0000
0000
FFFD
7FFE
3FFC
1FF8
1FF8
1FF8
1FF8
1FF8
1FF8
1FF8
1FF0
1FF0
1FF0
1FF0
1EF0
1EF0
1EF0
1EF0
1EF0
1FF0
1FF0
3FF0
1FF0
1FF0
1EF0
1E60
1EF0
1CE0
1CE0
14A0
1420
0040
0080
0080
ENDCHAR
STARTCHAR Atilde
ENCODING 195
SWIDTH 494 0
DWIDTH 18 0
BBX 16 45 1 -8
BITMAP
2078
707C
F9FE
FFFF
7FFF
7FFE
3F1C
0C08
0000
0000
0000
FFFD
7FFE
3FFC
1FF8
1FF8
1FF8
1FF8
1FF8
1FF8
1FF8
1FF0
1FF0
1FF0
1FF0
1EF0
1EF0
1EF0
1EF0
1EF0
1FF0
1FF0
3FF0
1FF0
1FF0
1EF0
1E60
1EF0
1CE0
1CE0
14A0
1420
0040
0080
0080
ENDCHAR
STARTCHAR Adieresis
ENCODING 196
SWIDTH 494 0
DWIDTH 18 0
BBX 18 46 0 -8
BITMAP
000300
FE3FC0
FE3FC0
FE3FC0
FE3FC0
FE3FC0
FE3FC0
FE3FC0
FE3FC0
000000
000000
000000
7FFE80
3FFF00
1FFE00
0FFC00
0FFC00
0FFC00
0FFC00
0FFC00
0FFC00
0FFC00
0FF800
0FF800
0FF800
0FF800
0F7800
0F7800
0F7800
0F7800
0F7800
0FF800
0FF800
1FF800
0FF800
0FF800
0F7800
0F3000
0F7800
0E7000
0E7000
0A5000
0A1000
002000
004000
004000
ENDCHAR
STARTCHAR Aring
ENCODING 197
SWIDTH 494 0
DWIDTH 18 0
BBX 16 46 1 -8
BITMAP
01C0
07E0
0FF0
1F78
1C38
0C38
0C30
0F70
0FE0
0BE0
0080
0000
FFFD
7FFE
3FFC
1FF8
1FF8
1FF8
1FF8
1FF8
1FF8
1FF8
1FF0
1FF0
1FF0
1FF0
1EF0
1EF0
1EF0
1EF0
1EF0
1FF0
1FF0
3FF0
1FF0
1FF0
1EF0
1E60
1EF0
1CE0
1CE0
14A0
1420
0040
0080
0080
ENDCHAR
STARTCHAR AE
ENCODING 198
SWIDTH 733 0
DWIDTH 26 0
BBX 24 34 1 -8
BITMAP
FFFFFF
7FFFFF
1FFFFE
1FFFFE
1FFFFC
1FFFFC
1FFFFC
1FFFF8
1FFFF8
1FFFF8
1FFFF8
1FFC38
1FFC00
1EFC00
1EFFE0
1EFFE0
1EFFE0
1EFFE0
1CFFE0
1FFC00
1FFC00
3FFFC0
1FFFF0
1FFFE0
1EFFE0
1EE7E0
1EE720
1CE520
1CE420
14A420
142420
004400
008000
008000
ENDCHAR
STARTCHAR Ccedilla
ENCODING 199
SWIDTH 504 0
DWIDTH 18 0
BBX 16 43 1 -16
BITMAP
03F0
0FF8
1FFE
3FFE
7FFF
7FFF
FFFF
FFFF
FFFF
FFFF
FFFF
FFFF
FF7F
7E3F
7E3F
7E3F
7E00
7E00
7E00
3E00
3E3E
3E3E
3F7C
3F7C
1FFC
1FF8
1FF0
06F0
02C0
02A0
02A0
001C
0038
0038
0030
0070
007F
007F
0007
0007
001E
007E
007E
ENDCHAR
STARTCHAR Egrave
ENCODING 200
SWIDTH 570 0
DWIDTH 21 0
BBX 19 39 0 -2
BITMAP
180000
3C0000
3E0000
3F0000
FF8000
7FE000
0FF000
01F000
001000
000000
000000
7FFFE0
3FFFE0
3FFFC0
1FFFC0
0FFFC0
1FFFC0
1FFF80
1FFF80
1FFF80
0FFF00
0FFF00
0FC700
0FC000
0FC000
0FFC00
0FFC00
0FFC00
0FFC00
0FFC00
078000
078000
07B800
07FE00
07FE00
07FC00
04FC00
04A400
04A400
ENDCHAR
STARTCHAR Eacute
ENCODING 201
SWIDTH 570 0
DWIDTH 21 0
BBX 22 39 1 -2
BITMAP
000060
0000E0
0001E0
0007F0
000FF8
001FFC
003F80
003C00
002000
000000
000000
FFFFC0
7FFFC0
7FFF80
3FFF80
1FFF80
3FFF80
3FFF00
3FFF00
3FFF00
1FFE00
1FFE00
1F8E00
1F8000
1F8000
1FF800
1FF800
1FF800
1FF800
1FF800
0F0000
0F0000
0F7000
0FFC00
0FFC00
0FF800
09F800
094800
094800
ENDCHAR
STARTCHAR Ecircumflex
ENCODING 202
SWIDTH 570 0
DWIDTH 21 0
BBX 18 43 1 -2
BITMAP
051000
07F800
07F800
0FFC00
0FFC00
0FFE00
1F7E00
1F3F00
3E1F00
3C0F80
780780
700300
100200
000000
000000
FFFFC0
7FFFC0
7FFF80
3FFF80
1FFF80
3FFF80
3FFF00
3FFF00
3FFF00
1FFE00
1FFE00
1F8E00
1F8000
1F8000
1FF800
1FF800
1FF800
1FF800
1FF800
0F0000
0F0000
0F7000
0FFC00
0FFC00
0FF800
09F800
094800
094800
ENDCHAR
STARTCHAR Edieresis
ENCODING 203
SWIDTH 570 0
DWIDTH 21 0
BBX 18 40 1 -2
BITMAP
000300
7F1FC0
7F1FC0
7F1FC0
7F1FC0
7F1FC0
7F1FC0
7F1FC0
7F1FC0
000000
000000
000000
FFFFC0
7FFFC0
7FFF80
3FFF80
1FFF80
3FFF80
3FFF00
3FFF00
3FFF00
1FFE00
1FFE00
1F8E00
1F8000
1F8000
1FF800
1FF800
1FF800
1FF800
1FF800
0F0000
0F0000
0F7000
0FFC00
0FFC00
0FF800
09F800
094800
094800
ENDCHAR
STARTCHAR Igrave
ENCODING 204
SWIDTH 401 0
DWIDTH 14 0
BBX 17 40 -3 -2
BITMAP
100000
3C0000
3E0000
7F0000
FF8000
FFE000
0FE000
01E000
002000
000000
000000
07F480
1FFF00
0FFF00
07FE00
03FE00
01FC00
01FE00
01FE00
01FE00
01FC00
01FC00
01FC00
01FC00
01F800
01FC00
01FC00
01FC00
01FC00
00FC00
00F800
00F800
00FC00
00F800
00F800
00F800
007800
005800
005400
005000
ENDCHAR
STARTCHAR Iacute
ENCODING 205
SWIDTH 401 0
DWIDTH 14 0
BBX 19 40 0 -2
BITMAP
000100
000780
000F80
001FC0
003FE0
00FFE0
00FE00
00F000
008000
000000
000000
3FA400
FFF800
7FF800
3FF000
1FF000
0FE000
0FF000
0FF000
0FF000
0FE000
0FE000
0FE000
0FE000
0FC000
0FE000
0FE000
0FE000
0FE000
07E000
07C000
07C000
07E000
07C000
07C000
07C000
03C000
02C000
02A000
028000
ENDCHAR
STARTCHAR Icircumflex
ENCODING 206
SWIDTH 401 0
DWIDTH 14 0
BBX 16 44 -1 -2
BITMAP
0A60
0FE0
0FF0
1FF0
1FF8
3FF8
3EFC
7C7E
783E
781F
F00F
E00E
4004
0000
0000
1FD2
7FFC
3FFC
1FF8
0FF8
07F0
07F8
07F8
07F8
07F0
07F0
07F0
07F0
07E0
07F0
07F0
07F0
07F0
03F0
03E0
03E0
03F0
03E0
03E0
03E0
01E0
0160
0150
0140
ENDCHAR
STARTCHAR Idieresis
ENCODING 207
SWIDTH 401 0
DWIDTH 14 0
BBX 18 40 -2 -2
BITMAP
000300
7E3FC0
FE1FC0
FE1FC0
FE1FC0
FF1FC0
FE1FC0
FE1FC0
7E1FC0
000000
000000
0FE900
3FFE00
1FFE00
0FFC00
07FC00
03F800
03FC00
03FC00
03FC00
03F800
03F800
03F800
03F800
03F000
03F800
03F800
03F800
03F800
01F800
01F000
01F000
01F800
01F000
01F000
01F000
00F000
00B000
00A800
00A000
ENDCHAR
STARTCHAR Eth
ENCODING 208
SWIDTH 530 0
DWIDTH 19 0
BBX 19 32 1 -5
BITMAP
000C00
07FE00
3FFF00
3FFF80
3FFFC0
1FFFC0
1FFFC0
1FFFE0
0FFFE0
0FFFE0
0FFFE0
0FFFE0
0FE7C0
0FC7C0
0FC7C0
0FC7C0
FFF780
7FF780
07C780
07C780
07C700
07C700
07CF00
03FF00
07FF00
07FE00
073E00
063C00
022800
023000
022000
002000
ENDCHAR
STARTCHAR Ntilde
ENCODING 209
SWIDTH 610 0
DWIDTH 22 0
BBX 20 43 1 -6
BITMAP
081E00
1C3F00
7E7F80
7FFFC0
3FFFC0
1FFF80
0FC700
030200
000000
000000
009800
7F9FC0
FF8FF0
7F8FE0
3FCFC0
3FCFC0
3FEF80
3FEF80
3FEF80
3FFF80
1FFF80
1FFF80
1FFF80
1FFF80
1FFF00
1FFF00
1FFF00
0FFF00
0F7F00
0F7F00
0F7F00
0F3F00
0F3F00
0F3F00
0FBF00
0F9E00
079E00
079E00
069E00
048E00
049000
049000
049000
ENDCHAR
STARTCHAR Ograve
ENCODING 210
SWIDTH 504 0
DWIDTH 18 0
BBX 20 40 -2 -3
BITMAP
180000
1C0000
1E0000
3F8000
7FC000
FFE000
0FF000
00F000
001000
000000
000000
01FE00
03FF80
07FFC0
0FFFE0
1FFFE0
1FFFE0
1FFFE0
1FFFF0
1FFFE0
1FFFE0
1FFFE0
0FCFE0
0FCFE0
0FCFE0
0F87E0
0F87E0
0F87E0
0FC7E0
07C7C0
07CFC0
07CFC0
07CF80
07EF80
07FF80
03FF80
03FF00
00CD00
004D00
004800
ENDCHAR
STARTCHAR Oacute
ENCODING 211
SWIDTH 504 0
DWIDTH 18 0
BBX 20 40 1 -3
BITMAP
000180
0003C0
0007C0
000FC0
001FF0
007FE0
00FF00
00F800
004000
000000
000000
0FF000
1FFC00
3FFE00
7FFF00
FFFF00
FFFF00
FFFF00
FFFF80
FFFF00
FFFF00
FFFF00
7E7F00
7E7F00
7E7F00
7C3F00
7C3F00
7C3F00
7E3F00
3E3E00
3E7E00
3E7E00
3E7C00
3F7C00
3FFC00
1FFC00
1FF800
066800
026800
024000
ENDCHAR
STARTCHAR Ocircumflex
ENCODING 212
SWIDTH 504 0
DWIDTH 18 0
BBX 18 44 0 -3
BITMAP
053000
07F000
0FF800
0FF800
1FFC00
1FFC00
1F7E00
3E3E00
3C1F00
781F00
700F80
F00700
200200
000000
000000
07F800
0FFE00
1FFF00
3FFF80
7FFF80
7FFF80
7FFF80
7FFFC0
7FFF80
7FFF80
7FFF80
3F3F80
3F3F80
3F3F80
3E1F80
3E1F80
3E1F80
3F1F80
1F1F00
1F3F00
1F3F00
1F3E00
1FBE00
1FFE00
0FFE00
0FFC00
033400
013400
012000
ENDCHAR
STARTCHAR Otilde
ENCODING 213
SWIDTH 504 0
DWIDTH 18 0
BBX 18 40 0 -3
BITMAP
105800
787C00
F9FE00
FFFF80
7FFF00
3FFF00
3F8C00
060800
000000
000000
000000
07F800
0FFE00
1FFF00
3FFF80
7FFF80
7FFF80
7FFF80
7FFFC0
7FFF80
7FFF80
7FFF80
3F3F80
3F3F80
3F3F80
3E1F80
3E1F80
3E1F80
3F1F80
1F1F00
1F3F00
1F3F00
1F3E00
1FBE00
1FFE00
0FFE00
0FFC00
033400
013400
012000
ENDCHAR
STARTCHAR Odieresis
ENCODING 214
SWIDTH 504 0
DWIDTH 18 0
BBX 18 41 0 -3
BITMAP
000700
FE3FC0
FE3FC0
FE3FC0
FE3F80
FE3FC0
FE3FC0
FE3FC0
FE3FC0
000000
000000
000000
07F800
0FFE00
1FFF00
3FFF80
7FFF80
7FFF80
7FFF80
7FFFC0
7FFF80
7FFF80
7FFF80
3F3F80
3F3F80
3F3F80
3E1F80
3E1F80
3E1F80
3F1F80
1F1F00
1F3F00
1F3F00
1F3E00
1FBE00
1FFE00
0FFE00
0FFC00
033400
013400
012000
ENDCHAR
STARTCHAR multiply
ENCODING 215
SWIDTH 359 0
DWIDTH 13 0
BBX 13 14 0 7
BITMAP
0040
18C0
3CE0
7DF0
FFF8
3FF0
1FE0
0FC0
1FE0
3FF0
7FF8
7FF0
3CE0
1840
ENDCHAR
STARTCHAR Oslash
ENCODING 216
SWIDTH 658 0
DWIDTH 24 0
BBX 25 29 -1 -3
BITMAP
01FF0000
03FFC000
07FFE180
0FFFE300
1FFFF600
1FFFFC00
1FFFF800
1FFFF000
1FFFF000
1FFFF000
0FFFF000
0FCFF000
0FC7F000
0FC7F000
0F8FF000
0F9FF000
0FF7F000
0FE7E000
07C7E000
07C7E000
07C7E000
07C7C000
0FEFC000
1FFFC000
33FF8000
63FF8000
40CF8000
804D0000
004C0000
ENDCHAR
STARTCHAR Ugrave
ENCODING 217
SWIDTH 637 0
DWIDTH 23 0
BBX 23 39 0 -2
BITMAP
0C0000
0E0000
0F0000
1F8000
7FE000
3FF000
07F800
007800
000800
000000
03E400
FFC7F0
3FC7FE
1FC7F8
1FC7F0
1FC7F0
1FC7F0
1FC7F0
1FC7E0
0FC7E0
0FC7E0
0FC7E0
0FC7C0
0FC7C0
0FC7C0
0FC7C0
0FC7C0
0FC7C0
0FC7C0
0FCFC0
0FCFC0
07CFC0
07FF80
07FF80
07FF80
07DF00
01D200
019400
011400
ENDCHAR
STARTCHAR Uacute
ENCODING 218
SWIDTH 637 0
DWIDTH 23 0
BBX 24 40 0 -2
BITMAP
000018
00003C
000078
0000FC
0003FF
0007FE
000FF0
000F00
000800
000000
000000
03E400
FFC7F0
3FC7FE
1FC7F8
1FC7F0
1FC7F0
1FC7F0
1FC7F0
1FC7E0
0FC7E0
0FC7E0
0FC7E0
0FC7C0
0FC7C0
0FC7C0
0FC7C0
0FC7C0
0FC7C0
0FC7C0
0FCFC0
0FCFC0
07CFC0
07FF80
07FF80
07FF80
07DF00
01D200
019400
011400
ENDCHAR
STARTCHAR Ucircumflex
ENCODING 219
SWIDTH 637 0
DWIDTH 23 0
BBX 23 44 0 -2
BITMAP
00A600
00FE00
01FF00
01FF00
03FF80
03FF80
07EFC0
07C7C0
0787E0
0F03E0
0E01F0
1C00E0
040040
000000
000000
03E400
FFC7F0
3FC7FE
1FC7F8
1FC7F0
1FC7F0
1FC7F0
1FC7F0
1FC7E0
0FC7E0
0FC7E0
0FC7E0
0FC7C0
0FC7C0
0FC7C0
0FC7C0
0FC7C0
0FC7C0
0FC7C0
0FCFC0
0FCFC0
07CFC0
07FF80
07FF80
07FF80
07DF00
01D200
019400
011400
ENDCHAR
STARTCHAR Udieresis
ENCODING 220
SWIDTH 637 0
DWIDTH 23 0
BBX 23 40 0 -2
BITMAP
0000E0
1FC7F0
1FC7F0
1FC7F0
1FC7F0
1FC7F8
1FC7F8
1FC7F0
1FC7F0
000000
000000
03E400
FFC7F0
3FC7FE
1FC7F8
1FC7F0
1FC7F0
1FC7F0
1FC7F0
1FC7E0
0FC7E0
0FC7E0
0FC7E0
0FC7C0
0FC7C0
0FC7C0
0FC7C0
0FC7C0
0FC7C0
0FC7C0
0FCFC0
0FCFC0
07CFC0
07FF80
07FF80
07FF80
07DF00
01D200
019400
011400
ENDCHAR
STARTCHAR Yacute
ENCODING 221
SWIDTH 688 0
DWIDTH 25 0
BBX 25 40 0 -2
BITMAP
00000C00
00001E00
00003C00
00007E00
0000FF80
0003FF00
0007F800
00078000
00040000
00000000
00000000
0BC08000
FFE1F000
3FE1FF00
0FF1FF80
07F1FC00
03FBF800
01FBF000
00FFF000
007FE000
007FC000
007FC000
003FC000
003FC000
003FC000
001FC000
001FC000
000FC000
000F8000
000F8000
000F8000
000F8000
00078000
00078000
00078000
00078000
00078000
00078000
00078000
00040000
ENDCHAR
STARTCHAR Thorn
ENCODING 222
SWIDTH 521 0
DWIDTH 19 0
BBX 18 38 0 -5
BITMAP
17E000
FFC000
7FC000
7FC000
7FC000
7F8000
7FD000
7FFF00
3FFF80
3FFF80
3FFF80
3FFFC0
3FFFC0
3FFFC0
3FFFC0
3FFFC0
3FFF80
3FFF80
1FCF80
1FC780
1FC780
1FC780
1FC780
1FFF00
0FFF00
0FFF00
0FFE00
0FC000
0FC000
0FC000
0FC000
0FC000
07C000
07C000
04C000
04C000
048000
048000
ENDCHAR
STARTCHAR germandbls
ENCODING 223
SWIDTH 546 0
DWIDTH 20 0
BBX 18 29 1 -3
BITMAP
1FFE00
3FFF80
7FFF80
7FFF80
7FFFC0
FFFFC0
FFFFC0
7FFFC0
FFFFC0
FFFF80
FFFF80
7F3F80
7F1F00
7F1F00
7F3E00
7E7E00
7E7E00
7E7C00
3E7C00
3E7E00
3E3E00
3F3E00
3F3E00
3E3E00
3E7E00
1E7C00
1E7C00
12F800
001800
ENDCHAR
STARTCHAR agrave
ENCODING 224
SWIDTH 479 0
DWIDTH 17 0
BBX 19 41 -1 -3
BITMAP
180000
3C0000
3E0000
3F0000
FF8000
7FE000
0FF000
01E000
002000
000000
000000
03F7E0
7FFF80
1FFF00
0FFF00
07FF00
07FF00
07FF00
07FF00
07FF00
07FF00
07FE00
07FE00
07FE00
07FE00
07FE00
07FE00
07FF00
079E00
079F00
0F9F00
0F9F00
0FFE00
07FE00
0FFE00
0FFE00
079E00
079E00
079E00
071E00
070200
ENDCHAR
STARTCHAR aacute
ENCODING 225
SWIDTH 479 0
DWIDTH 17 0
BBX 22 41 0 -3
BITMAP
000040
0000E0
0003E0
0007F0
000FF8
001FFC
003F80
003C00
002000
000000
000000
07EFC0
FFFF00
3FFE00
1FFE00
0FFE00
0FFE00
0FFE00
0FFE00
0FFE00
0FFE00
0FFC00
0FFC00
0FFC00
0FFC00
0FFC00
0FFC00
0FFE00
0F3C00
0F3E00
1F3E00
1F3E00
1FFC00
0FFC00
1FFC00
1FFC00
0F3C00
0F3C00
0F3C00
0E3C00
0E0400
ENDCHAR
STARTCHAR acircumflex
ENCODING 226
SWIDTH 479 0
DWIDTH 17 0
BBX 18 45 0 -3
BITMAP
051000
07F800
07F800
0FFC00
0FFC00
0FFE00
1F7E00
1F3F00
3E1F00
3C0F80
780780
700300
100200
000000
000000
07EFC0
FFFF00
3FFE00
1FFE00
0FFE00
0FFE00
0FFE00
0FFE00
0FFE00
0FFE00
0FFC00
0FFC00
0FFC00
0FFC00
0FFC00
0FFC00
0FFE00
0F3C00
0F3E00
1F3E00
1F3E00
1FFC00
0FFC00
1FFC00
1FFC00
0F3C00
0F3C00
0F3C00
0E3C00
0E0400
ENDCHAR
STARTCHAR atilde
ENCODING 227
SWIDTH 479 0
DWIDTH 17 0
BBX 18 40 0 -3
BITMAP
103C00
387E00
FCFF00
7FFF80
7FFF80
3FFF00
1F8E00
060400
000000
000000
07EFC0
FFFF00
3FFE00
1FFE00
0FFE00
0FFE00
0FFE00
0FFE00
0FFE00
0FFE00
0FFC00
0FFC00
0FFC00
0FFC00
0FFC00
0FFC00
0FFE00
0F3C00
0F3E00
1F3E00
1F3E00
1FFC00
0FFC00
1FFC00
1FFC00
0F3C00
0F3C00
0F3C00
0E3C00
0E0400
ENDCHAR
STARTCHAR adieresis
ENCODING 228
SWIDTH 479 0
DWIDTH 17 0
BBX 18 41 0 -3
BITMAP
000300
7F1FC0
7F1FC0
7F1FC0
7F1FC0
7F1FC0
7F1FC0
7F1FC0
7F1FC0
000000
000000
07EFC0
FFFF00
3FFE00
1FFE00
0FFE00
0FFE00
0FFE00
0FFE00
0FFE00
0FFE00
0FFC00
0FFC00
0FFC00
0FFC00
0FFC00
0FFC00
0FFE00
0F3C00
0F3E00
1F3E00
1F3E00
1FFC00
0FFC00
1FFC00
1FFC00
0F3C00
0F3C00
0F3C00
0E3C00
0E0400
ENDCHAR
STARTCHAR aring
ENCODING 229
SWIDTH 479 0
DWIDTH 17 0
BBX 18 43 0 -3
BITMAP
00E000
03F800
07F800
0FBC00
061C00
061C00
061C00
07B800
07F800
03F000
006000
000000
000000
07EFC0
FFFF00
3FFE00
1FFE00
0FFE00
0FFE00
0FFE00
0FFE00
0FFE00
0FFE00
0FFC00
0FFC00
0FFC00
0FFC00
0FFC00
0FFC00
0FFE00
0F3C00
0F3E00
1F3E00
1F3E00
1FFC00
0FFC00
1FFC00
1FFC00
0F3C00
0F3C00
0F3C00
0E3C00
0E0400
ENDCHAR
STARTCHAR ae
ENCODING 230
SWIDTH 755 0
DWIDTH 27 0
BBX 26 30 0 -3
BITMAP
07EFE000
FFFFFF80
3FFFFFC0
1FFFFF80
0FFFFF00
0FFFFF00
0FFFFF00
0FFFFE00
0FFFFE00
0FFFFE00
0FFFFE00
0FFFFE00
0FFF7E00
0FFF0400
0FFF0000
0FBF0000
0FBFF800
0FBFF800
0F3FF800
0F3FF800
0F3FF000
0FFF0800
0FFF0000
1FFFE000
0FFFF800
0FBFF800
0F3FF800
0F3DF800
0E3D0800
0E040800
ENDCHAR
STARTCHAR ccedilla
ENCODING 231
SWIDTH 534 0
DWIDTH 19 0
BBX 18 41 1 -14
BITMAP
01F000
0FFC00
1FFE00
3FFF00
7FFF80
7FFFC0
FFFF80
FFFF80
FFFF80
FFFF80
FFFF80
FFFF80
7FBF80
7F1F80
7F1F80
7F1F80
7F0180
7F0000
3F0000
3F0000
3F1C00
3F1F00
3F3E00
1FBE00
1FFE00
0FFC00
0FFC00
0EB000
015000
003800
007000
007000
006000
00E000
00FE00
00FE00
000E00
000E00
003E00
00FE00
00FE00
ENDCHAR
STARTCHAR egrave
ENCODING 232
SWIDTH 632 0
DWIDTH 23 0
BBX 22 40 0 -3
BITMAP
0C0000
1E0000
1F0000
1F8000
7FC000
7FF000
07F800
00F000
001000
000000
000000
1FFFFC
FFFFF8
3FFFF8
3FFFF0
1FFFF0
0FFFE0
1FFFE0
0FFFE0
0FFFE0
0FFFE0
0FFFC0
0FEFC0
0FE040
07E000
07E000
07FF00
07FF00
07FF00
07FF00
07FF00
03E100
03E000
03FC00
03FF80
03FF80
01FF80
013F80
012100
000080
ENDCHAR
STARTCHAR eacute
ENCODING 233
SWIDTH 632 0
DWIDTH 23 0
BBX 24 41 0 -3
BITMAP
000010
000038
0000F8
0001FC
0003FE
0007FF
000FE0
000F00
000800
000000
000000
000000
1FFFFC
FFFFF8
3FFFF8
3FFFF0
1FFFF0
0FFFE0
1FFFE0
0FFFE0
0FFFE0
0FFFE0
0FFFC0
0FEFC0
0FE040
07E000
07E000
07FF00
07FF00
07FF00
07FF00
07FF00
03E100
03E000
03FC00
03FF80
03FF80
01FF80
013F80
012100
000080
ENDCHAR
STARTCHAR ecircumflex
ENCODING 234
SWIDTH 632 0
DWIDTH 23 0
BBX 22 45 0 -3
BITMAP
014400
01FE00
01FE00
03FF00
03FF00
07FF80
07DF80
07CFC0
0F87C0
0F03E0
1E01E0
1C00C0
080080
000000
000000
000000
1FFFFC
FFFFF8
3FFFF8
3FFFF0
1FFFF0
0FFFE0
1FFFE0
0FFFE0
0FFFE0
0FFFE0
0FFFC0
0FEFC0
0FE040
07E000
07E000
07FF00
07FF00
07FF00
07FF00
07FF00
03E100
03E000
03FC00
03FF80
03FF80
01FF80
013F80
012100
000080
ENDCHAR
STARTCHAR edieresis
ENCODING 235
SWIDTH 632 0
DWIDTH 23 0
BBX 22 41 0 -3
BITMAP
0000C0
1FCFF0
1FC7F0
1FC7F0
1FC7F0
1FC7F0
1FC7F0
1FC7F0
1F87F0
000000
000000
000000
1FFFFC
FFFFF8
3FFFF8
3FFFF0
1FFFF0
0FFFE0
1FFFE0
0FFFE0
0FFFE0
0FFFE0
0FFFC0
0FEFC0
0FE040
07E000
07E000
07FF00
07FF00
07FF00
07FF00
07FF00
03E100
03E000
03FC00
03FF80
03FF80
01FF80
013F80
012100
000080
ENDCHAR
STARTCHAR igrave
ENCODING 236
SWIDTH 411 0
DWIDTH 15 0
BBX 17 39 -3 -1
BITMAP
180000
3C0000
3E0000
3F0000
FF8000
7FE000
0FF000
01F000
001000
000000
000000
00D800
1FFF80
07FF00
07FF00
01FE00
01FE00
01FE00
01FE00
01FC00
01FC00
01FC00
01FC00
01FC00
01FC00
01FC00
00FC00
00FC00
00FC00
00FC00
00FC00
00F800
00F800
00F800
00F800
007800
007800
005800
005800
ENDCHAR
STARTCHAR iacute
ENCODING 237
SWIDTH 411 0
DWIDTH 15 0
BBX 20 39 0 -1
BITMAP
000100
000380
000F80
001FC0
003FE0
007FF0
00FE00
00F000
008000
000000
000000
06C000
FFFC00
3FF800
3FF800
0FF000
0FF000
0FF000
0FF000
0FE000
0FE000
0FE000
0FE000
0FE000
0FE000
0FE000
07E000
07E000
07E000
07E000
07E000
07C000
07C000
07C000
07C000
03C000
03C000
02C000
02C000
ENDCHAR
STARTCHAR icircumflex
ENCODING 238
SWIDTH 411 0
DWIDTH 15 0
BBX 16 43 0 -1
BITMAP
0A20
0FF0
0FF0
1FF8
1FF8
3FFC
3EFC
3E7E
7C3E
781F
F00F
E006
4004
0000
0000
06C0
FFFC
3FF8
3FF8
0FF0
0FF0
0FF0
0FF0
0FE0
0FE0
0FE0
0FE0
0FE0
0FE0
0FE0
07E0
07E0
07E0
07E0
07E0
07C0
07C0
07C0
07C0
03C0
03C0
02C0
02C0
ENDCHAR
STARTCHAR idieresis
ENCODING 239
SWIDTH 411 0
DWIDTH 15 0
BBX 17 39 -1 -1
BITMAP
000600
FE3F80
FE3F80
FE3F80
FE3F80
FE3F80
FE3F80
FE3F80
FE3F80
000000
000000
036000
7FFE00
1FFC00
1FFC00
07F800
07F800
07F800
07F800
07F000
07F000
07F000
07F000
07F000
07F000
07F000
03F000
03F000
03F000
03F000
03F000
03E000
03E000
03E000
03E000
01E000
01E000
016000
016000
ENDCHAR
STARTCHAR eth
ENCODING 240
SWIDTH 530 0
DWIDTH 19 0
BBX 19 32 1 -5
BITMAP
000C00
07FE00
3FFF00
3FFF80
3FFFC0
1FFFC0
1FFFC0
1FFFE0
0FFFE0
0FFFE0
0FFFE0
0FFFE0
0FE7C0
0FC7C0
0FC7C0
0FC7C0
FFF780
7FF780
07C780
07C780
07C700
07C700
07CF00
03FF00
07FF00
07FE00
073E00
063C00
022800
023000
022000
002000
ENDCHAR
STARTCHAR ntilde
ENCODING 241
SWIDTH 664 0
DWIDTH 24 0
BBX 24 41 0 -4
BITMAP
020780
070FC0
1F9FE0
0FFFF0
0FFFF0
07FFE0
03F1C0
00C080
000000
000000
83E201
7FE3FE
3FE3FC
3FF3FC
1FF1F8
1FF1F8
1FFBF8
1FFBF0
1FFBF0
1FFBF0
1FFFF0
1FFFF0
1FFFF0
0FFFF0
0FFFE0
0FFFE0
0FFFE0
0FFFE0
0FFFE0
0FFFE0
07FFC0
079FC0
079FC0
07DFC0
079FC0
078F80
078F80
078F80
074E80
000B00
000200
ENDCHAR
STARTCHAR ograve
ENCODING 242
SWIDTH 545 0
DWIDTH 20 0
BBX 20 40 -1 -3
BITMAP
180000
1C0000
1E0000
3F0000
FFC000
7FE000
0FF000
00F000
001000
000000
002400
03FF00
07FFC0
0FFFC0
1FFFE0
3FFFF0
3FFFF0
3FFFF0
3FFFF0
3FFFF0
3FFFF0
1FFFF0
1FCFF0
1F8FF0
1F8FF0
1F8FE0
1F8FE0
1F87E0
0F8FE0
0F8FC0
0F8FC0
0F8FC0
0FCF80
07DF80
07FF80
07FF80
02FF00
009E00
000900
000100
ENDCHAR
STARTCHAR oacute
ENCODING 243
SWIDTH 545 0
DWIDTH 20 0
BBX 21 41 1 -3
BITMAP
0000C0
0001E0
0003C0
0007E0
001FF8
003FF0
007F80
007800
004000
000000
000000
009000
0FFC00
1FFF00
3FFF00
7FFF80
FFFFC0
FFFFC0
FFFFC0
FFFFC0
FFFFC0
FFFFC0
7FFFC0
7F3FC0
7E3FC0
7E3FC0
7E3F80
7E3F80
7E1F80
3E3F80
3E3F00
3E3F00
3E3F00
3F3E00
1F7E00
1FFE00
1FFE00
0BFC00
027800
002400
000400
ENDCHAR
STARTCHAR ocircumflex
ENCODING 244
SWIDTH 545 0
DWIDTH 20 0
BBX 18 45 1 -3
BITMAP
053000
07F000
0FF000
0FF800
1FFC00
1FFC00
3F7E00
3E3E00
3C3F00
781F00
700F80
E00600
200200
000000
000000
009000
0FFC00
1FFF00
3FFF00
7FFF80
FFFFC0
FFFFC0
FFFFC0
FFFFC0
FFFFC0
FFFFC0
7FFFC0
7F3FC0
7E3FC0
7E3FC0
7E3F80
7E3F80
7E1F80
3E3F80
3E3F00
3E3F00
3E3F00
3F3E00
1F7E00
1FFE00
1FFE00
0BFC00
027800
002400
000400
ENDCHAR
STARTCHAR otilde
ENCODING 245
SWIDTH 545 0
DWIDTH 20 0
BBX 18 40 1 -3
BITMAP
205800
787C00
F9FE00
FFFF00
7FFF00
7FFE00
3F1C00
0C0800
000000
000000
009000
0FFC00
1FFF00
3FFF00
7FFF80
FFFFC0
FFFFC0
FFFFC0
FFFFC0
FFFFC0
FFFFC0
7FFFC0
7F3FC0
7E3FC0
7E3FC0
7E3F80
7E3F80
7E1F80
3E3F80
3E3F00
3E3F00
3E3F00
3F3E00
1F7E00
1FFE00
1FFE00
0BFC00
027800
002400
000400
ENDCHAR
STARTCHAR odieresis
ENCODING 246
SWIDTH 545 0
DWIDTH 20 0
BBX 18 41 1 -3
BITMAP
000700
FE3F80
FE3F80
FE3F80
FE3F80
FE3FC0
FE3FC0
FE3F80
FE3F80
000000
000000
009000
0FFC00
1FFF00
3FFF00
7FFF80
FFFFC0
FFFFC0
FFFFC0
FFFFC0
FFFFC0
FFFFC0
7FFFC0
7F3FC0
7E3FC0
7E3FC0
7E3F80
7E3F80
7E1F80
3E3F80
3E3F00
3E3F00
3E3F00
3F3E00
1F7E00
1FFE00
1FFE00
0BFC00
027800
002400
000400
ENDCHAR
STARTCHAR oslash
ENCODING 248
SWIDTH 676 0
DWIDTH 24 0
BBX 23 30 0 -3
BITMAP
006800
03FE02
0FFF86
1FFF8C
1FFFD8
3FFFF0
3FFFE0
7FFFC0
3FFFC0
7FFFE0
3FFFE0
3FFFC0
3F9FE0
3F1FE0
3F3FC0
1F7FC0
1FCFC0
1F8FC0
1F0FC0
1F1F80
0F1F80
0F1F80
1F9F00
3FBF00
6FFF80
C7FF00
85FE00
80BE00
001200
000200
ENDCHAR
STARTCHAR ugrave
ENCODING 249
SWIDTH 708 0
DWIDTH 26 0
BBX 26 37 0 0
BITMAP
02000000
07000000
07C00000
0FE00000
1FF00000
3FFC0000
01FC0000
003C0000
00040000
00000000
00100000
FFE1E800
3FF1FF00
1FE1FFC0
1FF1FF00
1FE1FE00
1FE1FE00
0FF1FE00
0FF1FC00
0FF1FC00
0FF1FC00
07F1F800
07F1F800
07F1F800
07E1F800
07E1F800
07E3F800
07F1F800
07F1F800
03F3F000
07F3F000
03F3F000
01FFF000
01FFF000
01FFE000
01F7E000
0073C000
ENDCHAR
STARTCHAR uacute
ENCODING 250
SWIDTH 708 0
DWIDTH 26 0
BBX 26 38 0 0
BITMAP
00000C00
00001E00
00003E00
00007E00
0000FF80
0003FF00
0007F800
0003C000
00020000
00000000
00000000
00100000
FFE1E800
3FF1FF00
1FE1FFC0
1FF1FF00
1FE1FE00
1FE1FE00
0FF1FE00
0FF1FC00
0FF1FC00
0FF1FC00
07F1F800
07F1F800
07F1F800
07E1F800
07E1F800
07E3F800
07F1F800
07F1F800
03F3F000
07F3F000
03F3F000
01FFF000
01FFF000
01FFE000
01F7E000
0073C000
ENDCHAR
STARTCHAR ucircumflex
ENCODING 251
SWIDTH 708 0
DWIDTH 26 0
BBX 26 42 0 0
BITMAP
00530000
007F0000
00FF8000
00FF8000
00FFC000
01FFC000
01F7E000
03E3E000
03C1F000
0780F000
0780F800
07007000
02002000
00000000
00000000
00100000
FFE1E800
3FF1FF00
1FE1FFC0
1FF1FF00
1FE1FE00
1FE1FE00
0FF1FE00
0FF1FC00
0FF1FC00
0FF1FC00
07F1F800
07F1F800
07F1F800
07E1F800
07E1F800
07E3F800
07F1F800
07F1F800
03F3F000
07F3F000
03F3F000
01FFF000
01FFF000
01FFE000
01F7E000
0073C000
ENDCHAR
STARTCHAR udieresis
ENCODING 252
SWIDTH 708 0
DWIDTH 26 0
BBX 26 38 0 0
BITMAP
00003000
0FE3FC00
0FE3FC00
0FE3FC00
0FE3FC00
0FE3FC00
0FE3FC00
0FE3FC00
0FE3FC00
00000000
00000000
00100000
FFE1E800
3FF1FF00
1FE1FFC0
1FF1FF00
1FE1FE00
1FE1FE00
0FF1FE00
0FF1FC00
0FF1FC00
0FF1FC00
07F1F800
07F1F800
07F1F800
07E1F800
07E1F800
07E3F800
07F1F800
07F1F800
03F3F000
07F3F000
03F3F000
01FFF000
01FFF000
01FFE000
01F7E000
0073C000
ENDCHAR
STARTCHAR yacute
ENCODING 253
SWIDTH 604 0
DWIDTH 22 0
BBX 23 41 0 -3
BITMAP
000030
000078
0000F8
0001F8
0003FE
000FFC
001FE0
000F00
000800
000000
000000
000400
FF87A0
3FC7FC
1FC7F0
07CFE0
07EFC0
03FF80
03FF00
01FF00
01FE00
00FE00
00FE00
00FE00
00FE00
007E00
007E00
007E00
007E00
007C00
003C00
003C00
007C00
007C00
007C00
007C00
007C00
007C00
003C00
002400
002000
ENDCHAR
STARTCHAR thorn
ENCODING 254
SWIDTH 498 0
DWIDTH 18 0
BBX 17 38 0 -5
BITMAP
17C000
FFC000
7F8000
7F8000
7F8000
7F8000
7FA000
7FFE00
3FFF00
3FFF00
3FFF80
3FFF80
3FFF80
3FFF80
3FFF80
3FFF80
3FFF80
3FFF80
1F8F80
1F8F00
1F8F00
1F8F00
1F8F00
1FFF00
0FFF00
0FFE00
0FFE00
0FC000
0FC000
0FC000
0FC000
0FC000
07C000
07C000
04C000
04C000
048000
048000
ENDCHAR
STARTCHAR ydieresis
ENCODING 255
SWIDTH 604 0
DWIDTH 22 0
BBX 22 41 0 -3
BITMAP
000070
1FC7F8
1FC7F8
1FC7F8
1FC7F8
1FC7F8
1FC7F8
1FC7F8
1FC7F8
000000
000000
000400
FF87A0
3FC7FC
1FC7F0
07CFE0
07EFC0
03FF80
03FF00
01FF00
01FE00
00FE00
00FE00
00FE00
00FE00
007E00
007E00
007E00
007E00
007C00
003C00
003C00
007C00
007C00
007C00
007C00
007C00
007C00
003C00
002400
002000
ENDCHAR
STARTCHAR Amacron
ENCODING 256
SWIDTH 494 0
DWIDTH 18 0
BBX 16 42 1 -8
BITMAP
3FFC
3FFC
3FFC
3FFC
0E8C
0000
0000
0000
FFFD
7FFE
3FFC
1FF8
1FF8
1FF8
1FF8
1FF8
1FF8
1FF8
1FF0
1FF0
1FF0
1FF0
1EF0
1EF0
1EF0
1EF0
1EF0
1FF0
1FF0
3FF0
1FF0
1FF0
1EF0
1E60
1EF0
1CE0
1CE0
14A0
1420
0040
0080
0080
ENDCHAR
STARTCHAR amacron
ENCODING 257
SWIDTH 479 0
DWIDTH 17 0
BBX 18 37 0 -3
BITMAP
1FF600
1FFE00
1FFE00
1FFE00
03C600
000000
000000
07EFC0
FFFF00
3FFE00
1FFE00
0FFE00
0FFE00
0FFE00
0FFE00
0FFE00
0FFE00
0FFC00
0FFC00
0FFC00
0FFC00
0FFC00
0FFC00
0FFE00
0F3C00
0F3E00
1F3E00
1F3E00
1FFC00
0FFC00
1FFC00
1FFC00
0F3C00
0F3C00
0F3C00
0E3C00
0E0400
ENDCHAR
STARTCHAR Abreve
ENCODING 258
SWIDTH 494 0
DWIDTH 18 0
BBX 17 48 1 -8
BITMAP
3E0000
1E0F80
1E0F00
1E1F00
1F9F00
0FFE00
0FFE00
09FC00
013C00
003400
000400
000000
000000
000000
FFFD00
7FFE00
3FFC00
1FF800
1FF800
1FF800
1FF800
1FF800
1FF800
1FF800
1FF000
1FF000
1FF000
1FF000
1EF000
1EF000
1EF000
1EF000
1EF000
1FF000
1FF000
3FF000
1FF000
1FF000
1EF000
1E6000
1EF000
1CE000
1CE000
14A000
142000
004000
008000
008000
ENDCHAR
STARTCHAR abreve
ENCODING 259
SWIDTH 479 0
DWIDTH 17 0
BBX 18 43 0 -3
BITMAP
1F0000
0F0780
0F0780
0F0F80
0FCF80
07FF00
07FF00
05FE00
009E00
001A00
000200
000000
000000
07EFC0
FFFF00
3FFE00
1FFE00
0FFE00
0FFE00
0FFE00
0FFE00
0FFE00
0FFE00
0FFC00
0FFC00
0FFC00
0FFC00
0FFC00
0FFC00
0FFE00
0F3C00
0F3E00
1F3E00
1F3E00
1FFC00
0FFC00
1FFC00
1FFC00
0F3C00
0F3C00
0F3C00
0E3C00
0E0400
ENDCHAR
STARTCHAR Aogonek
ENCODING 260
SWIDTH 494 0
DWIDTH 18 0
BBX 16 41 1 -15
BITMAP
FFFD
7FFE
3FFC
1FF8
1FF8
1FF8
1FF8
1FF8
1FF8
1FF8
1FF0
1FF0
1FF0
1FF0
1EF0
1EF0
1EF0
1EF0
1EF0
1FF0
1FF0
3FF0
1FF0
1FF0
1EF0
1E60
1EF0
1CE0
1CE0
15E0
15E0
01E0
01E0
01E0
01E0
01F0
01FD
01FF
00FF
00FF
003F
ENDCHAR
STARTCHAR aogonek
ENCODING 261
SWIDTH 479 0
DWIDTH 17 0
BBX 19 40 0 -13
BITMAP
07EFC0
FFFF00
3FFE00
1FFE00
0FFE00
0FFE00
0FFE00
0FFE00
0FFE00
0FFE00
0FFC00
0FFC00
0FFC00
0FFC00
0FFC00
0FFC00
0FFE00
0F3C00
0F3E00
1F3E00
1F3E00
1FFC00
0FFC00
1FFC00
1FFC00
0F3C00
0F3C00
0F3C00
0E3C00
0E3C00
003C00
003800
003800
003800
003C00
003FE0
003FE0
001FE0
000FE0
0007C0
ENDCHAR
STARTCHAR Cacute
ENCODING 262
SWIDTH 504 0
DWIDTH 18 0
BBX 19 41 1 -4
BITMAP
000300
000700
000F00
003F80
007FC0
00FFE0
01FC00
01E000
010000
000000
03F000
0FF800
1FFE00
3FFE00
7FFF00
7FFF00
FFFF00
FFFF00
FFFF00
FFFF00
FFFF00
FFFF00
FF7F00
7E3F00
7E3F00
7E3F00
7E0000
7E0000
7E0000
3E0000
3E3E00
3E3E00
3F7C00
3F7C00
1FFC00
1FF800
1FF000
06F000
02C000
02A000
02A000
ENDCHAR
STARTCHAR cacute
ENCODING 263
SWIDTH 534 0
DWIDTH 19 0
BBX 19 40 1 -2
BITMAP
000300
000780
000F80
001F80
003FE0
00FFC0
01FE00
00F000
008000
000000
000000
01F000
0FFC00
1FFE00
3FFF00
7FFF80
7FFFC0
FFFF80
FFFF80
FFFF80
FFFF80
FFFF80
FFFF80
7FBF80
7F1F80
7F1F80
7F1F80
7F0180
7F0000
3F0000
3F0000
3F1C00
3F1F00
3F3E00
1FBE00
1FFE00
0FFC00
0FFC00
0EB000
015000
ENDCHAR
STARTCHAR Ccircumflex
ENCODING 264
SWIDTH 504 0
DWIDTH 18 0
BBX 17 46 1 -4
BITMAP
053000
07F000
0FF800
0FF800
0FFC00
1FFC00
1F7E00
3E3E00
3C1F00
780F00
780F80
700700
200200
000000
000000
03F000
0FF800
1FFE00
3FFE00
7FFF00
7FFF00
FFFF00
FFFF00
FFFF00
FFFF00
FFFF00
FFFF00
FF7F00
7E3F00
7E3F00
7E3F00
7E0000
7E0000
7E0000
3E0000
3E3E00
3E3E00
3F7C00
3F7C00
1FFC00
1FF800
1FF000
06F000
02C000
02A000
02A000
ENDCHAR
STARTCHAR ccircumflex
ENCODING 265
SWIDTH 534 0
DWIDTH 19 0
BBX 18 44 1 -2
BITMAP
029800
03F800
03FC00
07FC00
07FE00
0FFE00
0FBF00
1F1F00
1E0F80
3E0780
3C07C0
380380
100100
000000
000000
01F000
0FFC00
1FFE00
3FFF00
7FFF80
7FFFC0
FFFF80
FFFF80
FFFF80
FFFF80
FFFF80
FFFF80
7FBF80
7F1F80
7F1F80
7F1F80
7F0180
7F0000
3F0000
3F0000
3F1C00
3F1F00
3F3E00
1FBE00
1FFE00
0FFC00
0FFC00
0EB000
015000
ENDCHAR
STARTCHAR Cdotaccent
ENCODING 266
SWIDTH 504 0
DWIDTH 18 0
BBX 16 44 1 -4
BITMAP
1FF8
0FF8
0FF8
0FF8
0FF8
0FF8
0FF8
0FF8
0FF8
07F8
0704
0000
0000
03F0
0FF8
1FFE
3FFE
7FFF
7FFF
FFFF
FFFF
FFFF
FFFF
FFFF
FFFF
FF7F
7E3F
7E3F
7E3F
7E00
7E00
7E00
3E00
3E3E
3E3E
3F7C
3F7C
1FFC
1FF8
1FF0
06F0
02C0
02A0
02A0
ENDCHAR
STARTCHAR cdotaccent
ENCODING 267
SWIDTH 534 0
DWIDTH 19 0
BBX 18 42 1 -2
BITMAP
07FC00
0FFC00
07FC00
07FC00
07FC00
07FC00
07FC00
07FC00
07FC00
07FC00
078400
000000
000000
01F000
0FFC00
1FFE00
3FFF00
7FFF80
7FFFC0
FFFF80
FFFF80
FFFF80
FFFF80
FFFF80
FFFF80
7FBF80
7F1F80
7F1F80
7F1F80
7F0180
7F0000
3F0000
3F0000
3F1C00
3F1F00
3F3E00
1FBE00
1FFE00
0FFC00
0FFC00
0EB000
015000
ENDCHAR
STARTCHAR Ccaron
ENCODING 268
SWIDTH 504 0
DWIDTH 18 0
BBX 16 46 1 -4
BITMAP
300C
F80E
7C1F
7C3F
7E3E
3E7E
3F7C
1FFC
1FF8
0FF8
0FF0
07F0
0020
0000
0000
03F0
0FF8
1FFE
3FFE
7FFF
7FFF
FFFF
FFFF
FFFF
FFFF
FFFF
FFFF
FF7F
7E3F
7E3F
7E3F
7E00
7E00
7E00
3E00
3E3E
3E3E
3F7C
3F7C
1FFC
1FF8
1FF0
06F0
02C0
02A0
02A0
ENDCHAR
STARTCHAR ccaron
ENCODING 269
SWIDTH 534 0
DWIDTH 19 0
BBX 18 44 1 -2
BITMAP
180300
7C0780
3E0FC0
3E0F80
1F1F80
1F3F00
0FBF00
0FFE00
0FFE00
07FC00
07FC00
03F800
000800
000000
000000
01F000
0FFC00
1FFE00
3FFF00
7FFF80
7FFFC0
FFFF80
FFFF80
FFFF80
FFFF80
FFFF80
FFFF80
7FBF80
7F1F80
7F1F80
7F1F80
7F0180
7F0000
3F0000
3F0000
3F1C00
3F1F00
3F3E00
1FBE00
1FFE00
0FFC00
0FFC00
0EB000
015000
ENDCHAR
STARTCHAR Dcaron
ENCODING 270
SWIDTH 522 0
DWIDTH 19 0
BBX 18 46 1 -5
BITMAP
0C0300
3E0780
3E07C0
1F0FC0
1F0F80
0F9F80
0FBF00
0FFF00
07FE00
07FE00
03FC00
03F800
000800
000000
000000
8FFC00
7FFE00
FFFF00
7FFF80
7FFF80
3FFF80
3FFF80
3FFF80
3FFF80
3FFF80
1FFF80
1F9F80
1F8F00
1F0F00
1F0F00
1F0F00
1F0F00
1F8E00
1F0E00
0F1E00
0F1E00
0FBE00
0FFE00
0FFE00
0FFC00
0CFC00
08FC00
086000
086000
084000
004000
ENDCHAR
STARTCHAR dcaron
ENCODING 271
SWIDTH 522 0
DWIDTH 19 0
BBX 18 46 1 -5
BITMAP
0C0300
3E0780
3E07C0
1F0FC0
1F0F80
0F9F80
0FBF00
0FFF00
07FE00
07FE00
03FC00
03F800
000800
000000
000000
8FFC00
7FFE00
FFFF00
7FFF80
7FFF80
3FFF80
3FFF80
3FFF80
3FFF80
3FFF80
1FFF80
1F9F80
1F8F00
1F0F00
1F0F00
1F0F00
1F0F00
1F8E00
1F0E00
0F1E00
0F1E00
0FBE00
0FFE00
0FFE00
0FFC00
0CFC00
08FC00
086000
086000
084000
004000
ENDCHAR
STARTCHAR Eth.dup2
ENCODING 272
SWIDTH 530 0
DWIDTH 19 0
BBX 19 32 1 -5
BITMAP
000C00
07FE00
3FFF00
3FFF80
3FFFC0
1FFFC0
1FFFC0
1FFFE0
0FFFE0
0FFFE0
0FFFE0
0FFFE0
0FE7C0
0FC7C0
0FC7C0
0FC7C0
FFF780
7FF780
07C780
07C780
07C700
07C700
07CF00
03FF00
07FF00
07FE00
073E00
063C00
022800
023000
022000
002000
ENDCHAR
STARTCHAR Emacron
ENCODING 274
SWIDTH 570 0
DWIDTH 21 0
BBX 18 36 1 -2
BITMAP
1FF600
1FFE00
1FFE00
1FFE00
03C600
000000
000000
000000
FFFFC0
7FFFC0
7FFF80
3FFF80
1FFF80
3FFF80
3FFF00
3FFF00
3FFF00
1FFE00
1FFE00
1F8E00
1F8000
1F8000
1FF800
1FF800
1FF800
1FF800
1FF800
0F0000
0F0000
0F7000
0FFC00
0FFC00
0FF800
09F800
094800
094800
ENDCHAR
STARTCHAR emacron
ENCODING 275
SWIDTH 632 0
DWIDTH 23 0
BBX 22 37 0 -3
BITMAP
07FF80
07FF80
07FF80
07FF80
01F180
000000
000000
000000
1FFFFC
FFFFF8
3FFFF8
3FFFF0
1FFFF0
0FFFE0
1FFFE0
0FFFE0
0FFFE0
0FFFE0
0FFFC0
0FEFC0
0FE040
07E000
07E000
07FF00
07FF00
07FF00
07FF00
07FF00
03E100
03E000
03FC00
03FF80
03FF80
01FF80
013F80
012100
000080
ENDCHAR
STARTCHAR Ebreve
ENCODING 276
SWIDTH 570 0
DWIDTH 21 0
BBX 18 42 1 -2
BITMAP
0F0000
0F0780
0F07C0
078780
07CF80
07FF80
07FF00
02FF00
00DE00
001A00
000200
000000
000000
000000
FFFFC0
7FFFC0
7FFF80
3FFF80
1FFF80
3FFF80
3FFF00
3FFF00
3FFF00
1FFE00
1FFE00
1F8E00
1F8000
1F8000
1FF800
1FF800
1FF800
1FF800
1FF800
0F0000
0F0000
0F7000
0FFC00
0FFC00
0FF800
09F800
094800
094800
ENDCHAR
STARTCHAR ebreve
ENCODING 277
SWIDTH 632 0
DWIDTH 23 0
BBX 22 43 0 -3
BITMAP
01E000
01E0F8
01E0F0
01E0F0
00F9F0
00FFE0
00FFE0
009FC0
0013C0
000340
000040
000000
000000
000000
1FFFFC
FFFFF8
3FFFF8
3FFFF0
1FFFF0
0FFFE0
1FFFE0
0FFFE0
0FFFE0
0FFFE0
0FFFC0
0FEFC0
0FE040
07E000
07E000
07FF00
07FF00
07FF00
07FF00
07FF00
03E100
03E000
03FC00
03FF80
03FF80
01FF80
013F80
012100
000080
ENDCHAR
STARTCHAR Edotaccent
ENCODING 278
SWIDTH 570 0
DWIDTH 21 0
BBX 18 42 1 -2
BITMAP
17FC00
0FFC00
0FFC00
07FC00
07FC00
07FC00
07FC00
07FC00
07FC00
07FC00
078400
000000
000000
000000
FFFFC0
7FFFC0
7FFF80
3FFF80
1FFF80
3FFF80
3FFF00
3FFF00
3FFF00
1FFE00
1FFE00
1F8E00
1F8000
1F8000
1FF800
1FF800
1FF800
1FF800
1FF800
0F0000
0F0000
0F7000
0FFC00
0FFC00
0FF800
09F800
094800
094800
ENDCHAR
STARTCHAR edotaccent
ENCODING 279
SWIDTH 632 0
DWIDTH 23 0
BBX 22 43 0 -3
BITMAP
07FF00
03FF00
03FF00
03FE00
01FF00
01FF00
01FF00
01FF00
01FF00
01FF00
01E100
000000
000000
000000
1FFFFC
FFFFF8
3FFFF8
3FFFF0
1FFFF0
0FFFE0
1FFFE0
0FFFE0
0FFFE0
0FFFE0
0FFFC0
0FEFC0
0FE040
07E000
07E000
07FF00
07FF00
07FF00
07FF00
07FF00
03E100
03E000
03FC00
03FF80
03FF80
01FF80
013F80
012100
000080
ENDCHAR
STARTCHAR Eogonek
ENCODING 280
SWIDTH 513 0
DWIDTH 19 0
BBX 18 38 1 -12
BITMAP
FFFFC0
7FFFC0
7FFF80
3FFF80
1FFF80
3FFF80
3FFF00
3FFF00
3FFF00
1FFE00
1FFE00
1F8E00
1F8000
1F8000
1FF800
1FF800
1FF800
1FF800
1FF800
0F0000
0F0000
0F7000
0FFC00
0FFC00
0FF800
0FF800
087800
08F800
00F000
00E000
00E000
00F000
00F800
00FF80
007F80
007F80
003F80
000780
ENDCHAR
STARTCHAR eogonek
ENCODING 281
SWIDTH 632 0
DWIDTH 23 0
BBX 22 38 0 -12
BITMAP
1FFFFC
FFFFF8
3FFFF8
3FFFF0
1FFFF0
0FFFE0
1FFFE0
0FFFE0
0FFFE0
0FFFE0
0FFFC0
0FEFC0
0FE040
07E000
07E000
07FF00
07FF00
07FF00
07FF00
07FF00
03E100
03E000
03FC00
03FF80
03FF80
01FF00
013E00
011E00
001E00
001E00
001E00
001E00
001E00
001FF0
001FF0
000FF0
0007F0
0001F0
ENDCHAR
STARTCHAR Ecaron
ENCODING 282
SWIDTH 570 0
DWIDTH 21 0
BBX 18 43 1 -2
BITMAP
0C0300
3E0780
3E07C0
1F0FC0
1F1F80
0F9F80
0FBF00
0FFF00
07FE00
07FC00
03FC00
03F800
000800
000000
000000
FFFFC0
7FFFC0
7FFF80
3FFF80
1FFF80
3FFF80
3FFF00
3FFF00
3FFF00
1FFE00
1FFE00
1F8E00
1F8000
1F8000
1FF800
1FF800
1FF800
1FF800
1FF800
0F0000
0F0000
0F7000
0FFC00
0FFC00
0FF800
09F800
094800
094800
ENDCHAR
STARTCHAR ecaron
ENCODING 283
SWIDTH 632 0
DWIDTH 23 0
BBX 22 45 0 -3
BITMAP
030060
0780F0
07C1F8
07C1F0
03E3F0
03E3E0
01F7E0
01FFC0
00FFC0
00FF80
00FF80
007F00
000100
000000
000000
000000
1FFFFC
FFFFF8
3FFFF8
3FFFF0
1FFFF0
0FFFE0
1FFFE0
0FFFE0
0FFFE0
0FFFE0
0FFFC0
0FEFC0
0FE040
07E000
07E000
07FF00
07FF00
07FF00
07FF00
07FF00
03E100
03E000
03FC00
03FF80
03FF80
01FF80
013F80
012100
000080
ENDCHAR
STARTCHAR Gcircumflex
ENCODING 284
SWIDTH 499 0
DWIDTH 18 0
BBX 16 45 1 -4
BITMAP
0A60
0FE0
0FF0
1FF0
1FF8
3FF8
3EFC
7C7C
783E
F81E
F01F
E00E
4004
0000
0000
0FF0
3FF8
7FFE
7FFE
7FFF
FFFF
FFFF
FFFF
FFFF
FFFF
7FFF
7E7F
7C7E
7C7E
7C7E
7C01
3C80
3CFE
3EFE
3E7E
3E9E
3E3E
3F3E
1FFE
1FFE
1FFC
0EFC
0650
0550
0400
ENDCHAR
STARTCHAR gcircumflex
ENCODING 285
SWIDTH 546 0
DWIDTH 20 0
BBX 18 45 1 -3
BITMAP
053000
07F000
0FF800
0FF800
1FFC00
1FFC00
3F7E00
3E3E00
3C3F00
781F00
700F80
E00700
200200
000000
000000
010000
1FF800
1FFE00
7FFF00
FFFF80
FFFF80
FFFFC0
FFFFC0
FFFFC0
FFFFC0
FFFFC0
7FFFC0
7F7FC0
7E3F80
7E3F80
7E1F80
7E0F80
3E0000
3E7800
3F7F80
1F3F80
1F3F80
1F2F00
1F0F00
1FBF00
1FFF00
0FFF00
0FFF00
07FE00
02A400
ENDCHAR
STARTCHAR Gbreve
ENCODING 286
SWIDTH 499 0
DWIDTH 18 0
BBX 16 44 1 -4
BITMAP
3C00
3C1F
3C1E
3C1E
1F3E
1FFC
1FFC
13F8
0278
0068
0008
0000
0000
0000
0FF0
3FF8
7FFE
7FFE
7FFF
FFFF
FFFF
FFFF
FFFF
FFFF
7FFF
7E7F
7C7E
7C7E
7C7E
7C01
3C80
3CFE
3EFE
3E7E
3E9E
3E3E
3F3E
1FFE
1FFE
1FFC
0EFC
0650
0550
0400
ENDCHAR
STARTCHAR gbreve
ENCODING 287
SWIDTH 546 0
DWIDTH 20 0
BBX 18 43 1 -3
BITMAP
3E0000
1E0F00
1E0F00
1E1F00
1F1F00
1FFE00
0FFE00
0BFC00
013C00
003400
000400
000000
000000
010000
1FF800
1FFE00
7FFF00
FFFF80
FFFF80
FFFFC0
FFFFC0
FFFFC0
FFFFC0
FFFFC0
7FFFC0
7F7FC0
7E3F80
7E3F80
7E1F80
7E0F80
3E0000
3E7800
3F7F80
1F3F80
1F3F80
1F2F00
1F0F00
1FBF00
1FFF00
0FFF00
0FFF00
07FE00
02A400
ENDCHAR
STARTCHAR Gdotaccent
ENCODING 288
SWIDTH 499 0
DWIDTH 18 0
BBX 16 44 1 -4
BITMAP
3FF0
1FF0
1FF0
1FF0
1FF0
1FF8
1FF0
0FF0
0FF0
0FF0
0E08
0000
0000
0000
0FF0
3FF8
7FFE
7FFE
7FFF
FFFF
FFFF
FFFF
FFFF
FFFF
7FFF
7E7F
7C7E
7C7E
7C7E
7C01
3C80
3CFE
3EFE
3E7E
3E9E
3E3E
3F3E
1FFE
1FFE
1FFC
0EFC
0650
0550
0400
ENDCHAR
STARTCHAR gdotaccent
ENCODING 289
SWIDTH 546 0
DWIDTH 20 0
BBX 18 43 1 -3
BITMAP
1FF800
0FF800
0FF800
0FF800
0FF800
0FF800
0FF800
0FF800
0FF800
0FF800
0F0800
000000
000000
010000
1FF800
1FFE00
7FFF00
FFFF80
FFFF80
FFFFC0
FFFFC0
FFFFC0
FFFFC0
FFFFC0
7FFFC0
7F7FC0
7E3F80
7E3F80
7E1F80
7E0F80
3E0000
3E7800
3F7F80
1F3F80
1F3F80
1F2F00
1F0F00
1FBF00
1FFF00
0FFF00
0FFF00
07FE00
02A400
ENDCHAR
STARTCHAR Gcommaaccent
ENCODING 290
SWIDTH 499 0
DWIDTH 18 0
BBX 16 47 1 -21
BITMAP
0FF0
3FF8
7FFE
7FFE
7FFF
FFFF
FFFF
FFFF
FFFF
FFFF
7FFF
7E7F
7C7E
7C7E
7C7E
7C01
3C80
3CFE
3EFE
3E7E
3E9E
3E3E
3F3E
1FFE
1FFE
1FFC
0EFC
0650
0550
0400
0000
0000
07F8
07F8
07F8
07F8
07FC
07FC
07F8
07F8
067C
0038
0038
0078
0078
0078
0078
ENDCHAR
STARTCHAR Hcircumflex
ENCODING 292
SWIDTH 726 0
DWIDTH 26 0
BBX 26 49 0 -7
BITMAP
00530000
007F0000
00FF8000
00FF8000
01FFC000
01FFC000
01F7E000
03E3E000
03C1F000
0781F000
0700F800
0F007000
02002000
00000000
00000000
00125000
03F1FF40
FFE1FF80
3FE1FF00
1FE0FE00
1FE1FE00
1FE1FE00
1FE1FC00
0FE1FC00
0FE1FC00
0FE1FC00
0FE1F800
0FE1F800
07E1F800
07E1F800
07FFF800
07FFF000
07FFF000
07FFF000
07F3F000
03E3F000
03E3E000
03E3E000
03E3E000
03E3E000
03E3E000
03E7E000
0743E000
0205A000
00004000
00000000
00040000
00040000
00040000
ENDCHAR
STARTCHAR hcircumflex
ENCODING 293
SWIDTH 730 0
DWIDTH 26 0
BBX 26 44 0 -2
BITMAP
00530000
007F0000
007F8000
00FF8000
00FFC000
01FFC000
01F7E000
03E3E000
03C1F000
07C0F000
0780F800
07007000
02002000
00000000
00000000
00F1F000
DFF1FFC0
3FE1FF80
1FE1FF00
1FE0FF00
1FE1FE00
1FE1FE00
1FE1FC00
0FE1FC00
0FE1FC00
0FE1FC00
0FE1FC00
0FE1F800
07E1F800
07EBF800
07FFF800
07FFF000
07FFF000
07FFF000
07E3F000
03E3F000
03E3F000
03E3F000
03E3E000
03E3E000
03E7E000
03E3E000
0703E000
00016000
ENDCHAR
STARTCHAR hbar
ENCODING 295
SWIDTH 704 0
DWIDTH 25 0
BBX 25 29 0 -2
BITMAP
00F3E000
DFE3FF80
3FE3FF00
1FE3FE00
1FC3FE00
1FFFFC00
1FFFFC00
1FFFF800
0FFFF800
0FFFF800
0FFFF800
0FFFF800
0FC1F000
07C3F000
07D7F000
07FFF000
07FFE000
07FFE000
07FFE000
07E3F000
03E3F000
03E3F000
03E3F000
03E3E000
03E3E000
03E7E000
03E3E000
0703E000
00016000
ENDCHAR
STARTCHAR Itilde
ENCODING 296
SWIDTH 401 0
DWIDTH 14 0
BBX 17 39 -2 -2
BITMAP
105800
387E00
FCFF00
FFFF80
7FFF80
3FFF00
1F8E00
060400
000000
000000
0FE900
3FFE00
1FFE00
0FFC00
07FC00
03F800
03FC00
03FC00
03FC00
03F800
03F800
03F800
03F800
03F000
03F800
03F800
03F800
03F800
01F800
01F000
01F000
01F800
01F000
01F000
01F000
00F000
00B000
00A800
00A000
ENDCHAR
STARTCHAR itilde
ENCODING 297
SWIDTH 411 0
DWIDTH 15 0
BBX 17 38 -2 -1
BITMAP
103C00
387E00
FCFF00
7FFF80
7FFF80
3FFF00
1F8E00
060400
000000
000000
01B000
3FFF00
0FFE00
0FFE00
03FC00
03FC00
03FC00
03FC00
03F800
03F800
03F800
03F800
03F800
03F800
03F800
01F800
01F800
01F800
01F800
01F800
01F000
01F000
01F000
01F000
00F000
00F000
00B000
00B000
ENDCHAR
STARTCHAR Imacron
ENCODING 298
SWIDTH 401 0
DWIDTH 14 0
BBX 14 36 0 -2
BITMAP
7FD8
7FF8
7FF8
7FF8
1D18
0000
0000
3FA4
FFF8
7FF8
3FF0
1FF0
0FE0
0FF0
0FF0
0FF0
0FE0
0FE0
0FE0
0FE0
0FC0
0FE0
0FE0
0FE0
0FE0
07E0
07C0
07C0
07E0
07C0
07C0
07C0
03C0
02C0
02A0
0280
ENDCHAR
STARTCHAR imacron
ENCODING 299
SWIDTH 411 0
DWIDTH 15 0
BBX 14 35 0 -1
BITMAP
7FF8
7FF8
7FF8
7FF8
1F18
0000
0000
06C0
FFFC
3FF8
3FF8
0FF0
0FF0
0FF0
0FF0
0FE0
0FE0
0FE0
0FE0
0FE0
0FE0
0FE0
07E0
07E0
07E0
07E0
07E0
07C0
07C0
07C0
07C0
03C0
03C0
02C0
02C0
ENDCHAR
STARTCHAR Ibreve
ENCODING 300
SWIDTH 401 0
DWIDTH 14 0
BBX 15 42 0 -2
BITMAP
7C00
7C3E
7C3E
3C3C
3E7C
3FFC
3FF8
17F8
0670
0050
0008
0000
0000
3FA4
FFF8
7FF8
3FF0
1FF0
0FE0
0FF0
0FF0
0FF0
0FE0
0FE0
0FE0
0FE0
0FC0
0FE0
0FE0
0FE0
0FE0
07E0
07C0
07C0
07E0
07C0
07C0
07C0
03C0
02C0
02A0
0280
ENDCHAR
STARTCHAR ibreve
ENCODING 301
SWIDTH 411 0
DWIDTH 15 0
BBX 15 41 0 -1
BITMAP
7800
783C
783E
3C3C
3E7C
3FFC
3FF8
17F8
06F0
00D0
0010
0000
0000
06C0
FFFC
3FF8
3FF8
0FF0
0FF0
0FF0
0FF0
0FE0
0FE0
0FE0
0FE0
0FE0
0FE0
0FE0
07E0
07E0
07E0
07E0
07E0
07C0
07C0
07C0
07C0
03C0
03C0
02C0
02C0
ENDCHAR
STARTCHAR Iogonek
ENCODING 302
SWIDTH 401 0
DWIDTH 14 0
BBX 14 41 0 -14
BITMAP
3FA4
FFF8
7FF8
3FF0
1FF0
0FE0
0FF0
0FF0
0FF0
0FE0
0FE0
0FE0
0FE0
0FC0
0FE0
0FE0
0FE0
0FE0
07E0
07C0
07C0
07E0
07C0
07C0
07C0
03C0
07C0
07E0
0780
0700
0700
0F00
0F00
0F00
0F00
0F80
0FF8
0FF8
07F8
03F8
00F8
ENDCHAR
STARTCHAR iogonek
ENCODING 303
SWIDTH 412 0
DWIDTH 15 0
BBX 14 40 0 -13
BITMAP
06C0
FFFC
3FF8
3FF8
0FF0
0FF0
0FF0
0FF0
0FE0
0FE0
0FE0
0FE0
0FE0
0FE0
0FE0
07E0
07E0
07E0
07E0
07E0
07C0
07C0
07C0
03C0
03C0
03C0
07C0
07C0
0780
0780
0700
0F00
0F00
0F00
0F80
0FC0
07FC
07FC
03F8
01F8
ENDCHAR
STARTCHAR Idotaccent
ENCODING 304
SWIDTH 401 0
DWIDTH 14 0
BBX 14 42 0 -2
BITMAP
7FF0
3FF0
3FE0
3FE0
3FF0
1FF0
1FF0
1FF0
1FE0
1FE0
1C10
0000
0000
3FA4
FFF8
7FF8
3FF0
1FF0
0FE0
0FF0
0FF0
0FF0
0FE0
0FE0
0FE0
0FE0
0FC0
0FE0
0FE0
0FE0
0FE0
07E0
07C0
07C0
07E0
07C0
07C0
07C0
03C0
02C0
02A0
0280
ENDCHAR
STARTCHAR dotlessi
ENCODING 305
SWIDTH 411 0
DWIDTH 15 0
BBX 14 28 0 -1
BITMAP
06C0
FFFC
3FF8
3FF8
0FF0
0FF0
0FF0
0FF0
0FE0
0FE0
0FE0
0FE0
0FE0
0FE0
0FE0
07E0
07E0
07E0
07E0
07E0
07C0
07C0
07C0
07C0
03C0
03C0
02C0
02C0
ENDCHAR
STARTCHAR IJ
ENCODING 306
SWIDTH 908 0
DWIDTH 33 0
BBX 32 29 0 -2
BITMAP
3EE00000
FFFC03FF
7FF803FE
3FF803FC
1FF001FC
0FF001FC
0FF001FC
0FF001F8
0FF001F8
0FF001F8
0FF001F8
0FF001F8
0FF001F8
0FE001F0
0FE001F0
0FE001F0
0FE001F0
07E009F0
07E031F0
07E1F1F0
07E1F1E0
07E0F1E0
07E0FBE0
07E0FFE0
03E0FFC0
03E07FC0
02E03BC0
02600B40
02400800
ENDCHAR
STARTCHAR ij
ENCODING 307
SWIDTH 901 0
DWIDTH 32 0
BBX 32 29 0 -2
BITMAP
06C00B80
FFFC0FFC
3FF807FF
3FF807FC
0FF803FC
0FF003FC
0FF003FC
0FF003F8
0FF003F8
0FF003F8
0FF003F8
0FE003F8
0FE003F8
0FE003F8
0FE003F8
07E001F8
07E001F8
07E001F8
07E031F8
07E1F1F0
07E0F9F0
03E0F9F0
03E0F9F0
03E0FFF0
03E07FF0
03E07FE0
02C03FE0
026005A0
00000020
ENDCHAR
STARTCHAR Jcircumflex
ENCODING 308
SWIDTH 455 0
DWIDTH 16 0
BBX 19 43 -1 -2
BITMAP
014400
01FE00
01FE00
03FF00
03FF00
07FF80
07DF80
07CFC0
0F87C0
0F03E0
1E01E0
1C00C0
080080
000000
000000
01FF00
01FF00
01FE00
00FE00
00FE00
00FC00
00FC00
00FC00
00FC00
00FC00
00FC00
00FC00
00F800
00F800
00F800
00F800
04F800
18F800
F8F000
F8F000
79F000
79F000
7DF000
7FE000
7FE000
1DE000
052000
040000
ENDCHAR
STARTCHAR jcircumflex
ENCODING 309
SWIDTH 458 0
DWIDTH 17 0
BBX 19 44 -1 -2
BITMAP
014400
01FE00
01FE00
03FF00
03FF00
03FF80
07DF80
07CFC0
0F87C0
0F03E0
1E01E0
1C00C0
040080
000000
000000
05C000
03FE00
03FF80
01FE00
01FE00
01FE00
01FE00
00FC00
00FC00
00FC00
00FC00
00FC00
00FC00
00FC00
00FC00
00FC00
00FC00
00FC00
18FC00
F8FC00
FCFC00
7CF800
7CF800
7FF800
3FF800
3FF000
1FF000
02D000
001000
ENDCHAR
STARTCHAR Kcommaaccent
ENCODING 310
SWIDTH 580 0
DWIDTH 21 0
BBX 20 47 0 -20
BITMAP
0D4A00
FFCFF0
3FCFE0
1FCFC0
1FCF80
0FCF00
0FCE00
0FDE00
07DE00
07FE00
07FC00
07FC00
07FE00
07FE00
07FE00
07FE00
07FE00
03FE00
03FE00
03FE00
03FE00
03FE00
03CF00
03CF00
03CF00
03C700
03CF00
014D00
002100
000000
000000
000000
01FF00
01FF00
01FF00
01FF00
01FF00
01FF00
01FF00
01FF00
009F00
000F00
000F00
000E00
000E00
001E00
001E00
ENDCHAR
STARTCHAR kcommaaccent
ENCODING 311
SWIDTH 636 0
DWIDTH 23 0
BBX 23 46 0 -19
BITMAP
00B6E0
1FE7FE
FFE7F0
3FE7E0
1FE7C0
1FE7C0
0FEF80
0FEF80
07EF00
07EF00
07EF00
07EE00
07EE00
03EE00
03FC00
03FC00
03FC00
03FE00
03FE00
01FF00
01FF00
01EF00
01EF80
01E780
01E780
01E3C0
01E3C0
00A360
000100
000000
000000
007F80
00FF80
00FF80
00FF80
00FF80
00FF80
00FF80
00FF80
004F80
000780
000780
000700
000700
000F00
000F00
ENDCHAR
STARTCHAR kgreenlandic
ENCODING 312
SWIDTH 636 0
DWIDTH 23 0
BBX 23 29 0 -2
BITMAP
00B6E0
1FE7FE
FFE7F0
3FE7E0
1FE7C0
1FE7C0
0FEF80
0FEF80
07EF00
07EF00
07EF00
07EE00
07EE00
03EE00
03FC00
03FC00
03FC00
03FE00
03FE00
01FF00
01FF00
01EF00
01EF80
01E780
01E780
01E3C0
01E3C0
00A360
000100
ENDCHAR
STARTCHAR Lacute
ENCODING 313
SWIDTH 416 0
DWIDTH 15 0
BBX 20 40 0 -3
BITMAP
000180
000380
000780
001FC0
003FE0
007FF0
00FE00
00F000
008000
000000
808800
7FF000
3FE000
1FC000
3FC000
1F8000
1FC000
1FC000
1FC000
1FC000
1FC000
1F8000
1FC000
0FC000
0FC000
0FC000
0FC000
0FC000
0FC000
0FC000
0FC000
0FC000
0FFF00
07FF00
07FF00
07FE00
07FE00
025E00
025400
000400
ENDCHAR
STARTCHAR lacute
ENCODING 314
SWIDTH 438 0
DWIDTH 16 0
BBX 20 41 0 -3
BITMAP
000180
0003C0
0007C0
000FC0
001FF0
007FE0
00FF00
00F800
004000
000000
000000
005E00
FFF800
3FF000
1FF000
1FE000
1FE000
1FE000
0FE000
0FE000
0FE000
0FE000
0FE000
0FE000
07E000
07E000
07E000
07E000
07C000
07C000
07E000
07E000
07E000
03FF80
03FF00
03FF00
03FF00
03DF00
021600
020600
030000
ENDCHAR
STARTCHAR Lcommaaccent
ENCODING 315
SWIDTH 416 0
DWIDTH 15 0
BBX 16 47 0 -20
BITMAP
8088
7FF0
3FE0
1FC0
3FC0
1F80
1FC0
1FC0
1FC0
1FC0
1FC0
1F80
1FC0
0FC0
0FC0
0FC0
0FC0
0FC0
0FC0
0FC0
0FC0
0FC0
0FFF
07FF
07FF
07FE
07FE
025E
0254
0004
0000
0000
0FF8
0FF8
0FF8
0FF8
0FF8
0FF8
0FF8
0FF8
04F8
0078
0070
0070
00F0
00F0
00F0
ENDCHAR
STARTCHAR lcommaaccent
ENCODING 316
SWIDTH 438 0
DWIDTH 16 0
BBX 17 47 0 -20
BITMAP
005E00
FFF800
3FF000
1FF000
1FE000
1FE000
1FE000
0FE000
0FE000
0FE000
0FE000
0FE000
0FE000
07E000
07E000
07E000
07E000
07C000
07C000
07E000
07E000
07E000
03FF80
03FF00
03FF00
03FF00
03DF00
021600
020600
030000
000000
000000
07F800
07F800
07F800
07F800
07F800
07F800
07F800
07F800
04F800
007800
007800
007800
007800
007800
007000
ENDCHAR
STARTCHAR Lcaron
ENCODING 317
SWIDTH 714 0
DWIDTH 26 0
BBX 24 30 0 -3
BITMAP
808800
7FF1FF
3FE1FF
1FE1FF
3FC1FF
1F81FF
1FC1FF
1FC1FF
1FC1FF
1FC1FF
1FC1FF
1F800F
1FC00F
0FC00F
0FC00F
0FC00F
0FC00E
0FC00E
0FC000
0FC000
0FC000
0FC000
0FFF00
07FF00
07FF00
07FE00
07FE00
025E00
025600
000400
ENDCHAR
STARTCHAR lcaron
ENCODING 318
SWIDTH 782 0
DWIDTH 28 0
BBX 27 30 0 -3
BITMAP
005E0000
FFF83FE0
3FF03FE0
1FF03FE0
1FE03FE0
1FE07FE0
1FE07FE0
0FE07FE0
0FE07FE0
0FE07FE0
0FE07FE0
0FE003E0
0FE001E0
07E001C0
07E001C0
07E003C0
07E003C0
07C003C0
07C00000
07E00000
07E00000
07E00000
03FF8000
03FF0000
03FF0000
03FF0000
03DF0000
02160000
02060000
03000000
ENDCHAR
STARTCHAR Ldotaccent
ENCODING 319
SWIDTH 567 0
DWIDTH 20 0
BBX 22 30 0 -3
BITMAP
808800
7FF000
3FE000
1FC000
3FC000
1F8000
1FCFFC
1FC7FC
1FC7FC
1FC7FC
1FC7FC
1F87FC
1FC7FC
0FC7FC
0FC7FC
0FC7FC
0FC784
0FC000
0FC000
0FC000
0FC000
0FC000
0FFF00
07FF00
07FF00
07FE00
07FE00
025E00
025400
000400
ENDCHAR
STARTCHAR ldot
ENCODING 320
SWIDTH 660 0
DWIDTH 24 0
BBX 25 30 0 -3
BITMAP
005E0000
FFF80000
3FF00000
1FF00000
1FE00000
1FE00000
1FE00000
0FE00000
0FE2FF80
0FE1FF80
0FE1FF80
0FE0FF80
0FE0FF80
07E0FF80
07E0FF80
07E0FF80
07E0FF80
07C0FF80
07C0F080
07E00000
07E00000
07E00000
03FF8000
03FF0000
03FF0000
03FF0000
03DF0000
02160000
02060000
03000000
ENDCHAR
STARTCHAR Lslash
ENCODING 321
SWIDTH 428 0
DWIDTH 15 0
BBX 17 30 0 -3
BITMAP
808800
7FF000
3FE000
1FC000
1FC000
1F8000
1FC000
0FC100
0FCF00
0FFF00
0FFF00
0FFF00
3FFF00
FFFF80
7FFF00
7FF000
7FC000
3FC000
3FC000
07C000
07C000
07C000
07FF00
07FF00
07FF00
07FE00
03FE00
025E00
025400
000400
ENDCHAR
STARTCHAR lslash
ENCODING 322
SWIDTH 457 0
DWIDTH 16 0
BBX 17 30 1 -3
BITMAP
005C00
FFF800
7FE000
3FE000
1FC000
3FC000
1FC100
1FC700
1FDF00
1FFF00
1FFF00
1FFF80
3FFF80
FFFF80
FFFC00
FFF000
7FC000
7FC000
3FC000
07C000
07C000
07C000
07FF00
07FF00
07FE00
07FE00
07DE00
061E00
020E00
020000
ENDCHAR
STARTCHAR Nacute
ENCODING 323
SWIDTH 610 0
DWIDTH 22 0
BBX 23 44 1 -6
BITMAP
000020
000070
0001F0
0003F8
0007FC
001FFE
001FC0
001E00
001000
000000
000000
009800
7F9FC0
FF8FF0
7F8FE0
3FCFC0
3FCFC0
3FEF80
3FEF80
3FEF80
3FFF80
1FFF80
1FFF80
1FFF80
1FFF80
1FFF00
1FFF00
1FFF00
0FFF00
0F7F00
0F7F00
0F7F00
0F3F00
0F3F00
0F3F00
0FBF00
0F9E00
079E00
079E00
069E00
048E00
049000
049000
049000
ENDCHAR
STARTCHAR nacute
ENCODING 324
SWIDTH 664 0
DWIDTH 24 0
BBX 25 42 0 -4
BITMAP
00000800
00001C00
00007C00
0000FE00
0001FF00
0003FF80
0007F000
00078000
00040000
00000000
00000000
83E20100
7FE3FE00
3FE3FC00
3FF3FC00
1FF1F800
1FF1F800
1FFBF800
1FFBF000
1FFBF000
1FFBF000
1FFFF000
1FFFF000
1FFFF000
0FFFF000
0FFFE000
0FFFE000
0FFFE000
0FFFE000
0FFFE000
0FFFE000
07FFC000
079FC000
079FC000
07DFC000
079FC000
078F8000
078F8000
078F8000
074E8000
000B0000
00020000
ENDCHAR
STARTCHAR Ncommaaccent
ENCODING 325
SWIDTH 610 0
DWIDTH 22 0
BBX 20 51 1 -24
BITMAP
009800
7F9FC0
FF8FF0
7F8FE0
3FCFC0
3FCFC0
3FEF80
3FEF80
3FEF80
3FFF80
1FFF80
1FFF80
1FFF80
1FFF80
1FFF00
1FFF00
1FFF00
0FFF00
0F7F00
0F7F00
0F7F00
0F3F00
0F3F00
0F3F00
0FBF00
0F9E00
079E00
079E00
069E00
048E00
049000
049000
049000
000000
000000
000000
01FF00
01FF00
01FF00
01FF00
01FF00
01FF00
01FF00
01FF00
009F00
000F00
000F00
000E00
000E00
001E00
001E00
ENDCHAR
STARTCHAR ncommaaccent
ENCODING 326
SWIDTH 664 0
DWIDTH 24 0
BBX 24 49 0 -22
BITMAP
83E201
7FE3FE
3FE3FC
3FF3FC
1FF1F8
1FF1F8
1FFBF8
1FFBF0
1FFBF0
1FFBF0
1FFFF0
1FFFF0
1FFFF0
0FFFF0
0FFFE0
0FFFE0
0FFFE0
0FFFE0
0FFFE0
0FFFE0
07FFC0
079FC0
079FC0
07DFC0
079FC0
078F80
078F80
078F80
074E80
000B00
000200
000000
000000
000000
007FC0
007FC0
007FC0
007FC0
007FC0
007FC0
007FC0
007FC0
0027C0
0003C0
0003C0
000380
000380
000780
000780
ENDCHAR
STARTCHAR Ncaron
ENCODING 327
SWIDTH 610 0
DWIDTH 22 0
BBX 20 48 1 -6
BITMAP
0C0180
3E03C0
1F07E0
1F07C0
0F8FC0
0F9F80
0FDF00
07FF00
07FE00
03FE00
03FC00
01FC00
000C00
000000
000000
009800
7F9FC0
FF8FF0
7F8FE0
3FCFC0
3FCFC0
3FEF80
3FEF80
3FEF80
3FFF80
1FFF80
1FFF80
1FFF80
1FFF80
1FFF00
1FFF00
1FFF00
0FFF00
0F7F00
0F7F00
0F7F00
0F3F00
0F3F00
0F3F00
0FBF00
0F9E00
079E00
079E00
069E00
048E00
049000
049000
049000
ENDCHAR
STARTCHAR ncaron
ENCODING 328
SWIDTH 664 0
DWIDTH 24 0
BBX 24 46 0 -4
BITMAP
018060
0780F0
07C0F8
03E1F0
03E3F0
03F3E0
01F7E0
01FFC0
00FFC0
00FF80
007F80
007F00
000100
000000
000000
83E201
7FE3FE
3FE3FC
3FF3FC
1FF1F8
1FF1F8
1FFBF8
1FFBF0
1FFBF0
1FFBF0
1FFFF0
1FFFF0
1FFFF0
0FFFF0
0FFFE0
0FFFE0
0FFFE0
0FFFE0
0FFFE0
0FFFE0
07FFC0
079FC0
079FC0
07DFC0
079FC0
078F80
078F80
078F80
074E80
000B00
000200
ENDCHAR
STARTCHAR Omacron
ENCODING 332
SWIDTH 504 0
DWIDTH 18 0
BBX 17 37 1 -3
BITMAP
3FFC00
3FFC00
3FFC00
7FFC00
0E8800
000000
000000
000000
0FF000
1FFC00
3FFE00
7FFF00
FFFF00
FFFF00
FFFF00
FFFF80
FFFF00
FFFF00
FFFF00
7E7F00
7E7F00
7E7F00
7C3F00
7C3F00
7C3F00
7E3F00
3E3E00
3E7E00
3E7E00
3E7C00
3F7C00
3FFC00
1FFC00
1FF800
066800
026800
024000
ENDCHAR
STARTCHAR omacron
ENCODING 333
SWIDTH 545 0
DWIDTH 20 0
BBX 18 37 1 -3
BITMAP
3FFC00
3FFE00
3FFC00
3FFC00
074C00
000000
000000
009000
0FFC00
1FFF00
3FFF00
7FFF80
FFFFC0
FFFFC0
FFFFC0
FFFFC0
FFFFC0
FFFFC0
7FFFC0
7F3FC0
7E3FC0
7E3FC0
7E3F80
7E3F80
7E1F80
3E3F80
3E3F00
3E3F00
3E3F00
3F3E00
1F7E00
1FFE00
1FFE00
0BFC00
027800
002400
000400
ENDCHAR
STARTCHAR Obreve
ENCODING 334
SWIDTH 504 0
DWIDTH 18 0
BBX 17 43 1 -3
BITMAP
3C0000
3C1E00
3C1F00
1E1E00
1F3E00
1FFE00
1FFC00
0BFC00
037800
002800
000800
000000
000000
000000
0FF000
1FFC00
3FFE00
7FFF00
FFFF00
FFFF00
FFFF00
FFFF80
FFFF00
FFFF00
FFFF00
7E7F00
7E7F00
7E7F00
7C3F00
7C3F00
7C3F00
7E3F00
3E3E00
3E7E00
3E7E00
3E7C00
3F7C00
3FFC00
1FFC00
1FF800
066800
026800
024000
ENDCHAR
STARTCHAR obreve
ENCODING 335
SWIDTH 545 0
DWIDTH 20 0
BBX 18 43 1 -3
BITMAP
3E0000
3E0F00
1E0F00
1E1F00
1F1F00
1FFE00
0FFE00
0BFC00
013C00
003400
000400
000000
000000
009000
0FFC00
1FFF00
3FFF00
7FFF80
FFFFC0
FFFFC0
FFFFC0
FFFFC0
FFFFC0
FFFFC0
7FFFC0
7F3FC0
7E3FC0
7E3FC0
7E3F80
7E3F80
7E1F80
3E3F80
3E3F00
3E3F00
3E3F00
3F3E00
1F7E00
1FFE00
1FFE00
0BFC00
027800
002400
000400
ENDCHAR
STARTCHAR Ohungarumlaut
ENCODING 336
SWIDTH 504 0
DWIDTH 18 0
BBX 18 44 1 -3
BITMAP
080800
0C0C00
1E1D00
1F1FC0
1F9F80
3F3F00
3E3E00
7C3C00
787800
F07000
E0E000
C06000
404000
000000
000000
0FF000
1FFC00
3FFE00
7FFF00
FFFF00
FFFF00
FFFF00
FFFF80
FFFF00
FFFF00
FFFF00
7E7F00
7E7F00
7E7F00
7C3F00
7C3F00
7C3F00
7E3F00
3E3E00
3E7E00
3E7E00
3E7C00
3F7C00
3FFC00
1FFC00
1FF800
066800
026800
024000
ENDCHAR
STARTCHAR ohungarumlaut
ENCODING 337
SWIDTH 545 0
DWIDTH 20 0
BBX 19 45 1 -3
BITMAP
040400
060600
0F0E80
0F8FE0
1FCFC0
1F9F80
1F1F00
3E3E00
3C3C00
783800
707000
606000
202000
000000
000000
009000
0FFC00
1FFF00
3FFF00
7FFF80
FFFFC0
FFFFC0
FFFFC0
FFFFC0
FFFFC0
FFFFC0
7FFFC0
7F3FC0
7E3FC0
7E3FC0
7E3F80
7E3F80
7E1F80
3E3F80
3E3F00
3E3F00
3E3F00
3F3E00
1F7E00
1FFE00
1FFE00
0BFC00
027800
002400
000400
ENDCHAR
STARTCHAR OE
ENCODING 338
SWIDTH 789 0
DWIDTH 28 0
BBX 26 32 1 -6
BITMAP
0FFFFFC0
1FFFFFC0
3FFFFF80
7FFFFF80
FFFFFF00
FFFFFF00
FFFFFF00
FFFFFE00
FFFFFE00
FFFFFE00
FFFFFE00
7E7F0E00
7E7F0000
7E7F0000
7C3FF800
7C3FF800
7C3FF800
7E3FF800
7E3FF800
3E7F0000
3E7F0000
3E7FF000
3F7FFC00
3FFFF800
1FFFF800
1FF9F800
0669C800
02694800
02490800
02490800
00410800
00010000
ENDCHAR
STARTCHAR oe
ENCODING 339
SWIDTH 778 0
DWIDTH 28 0
BBX 26 30 1 -3
BITMAP
01A00000
0FFFFF00
1FFFFFC0
3FFFFF80
7FFFFF00
FFFFFF00
FFFFFE00
FFFFFE00
FFFFFE00
FFFFFE00
FFFFFE00
7FFFFE00
7E7FFC00
7E3F8400
7E3F8000
7E3F0000
3E3FF000
3E3FF000
3E3FF000
3E3FF000
3E3FF000
3E3F1000
1E7F0000
1F7FC000
1FFFF800
1FFFF800
0BFFF800
0279F000
00690800
00080800
ENDCHAR
STARTCHAR Racute
ENCODING 340
SWIDTH 599 0
DWIDTH 22 0
BBX 22 40 1 -2
BITMAP
000060
0000F0
0001E0
0003F0
0007FC
001FF8
003FC0
003C00
002000
000000
000000
01E000
3FFF00
FFFFC0
7FFFE0
3FFFF0
1FFFF0
1FFFF0
0FFFF0
0FFFF0
0FFFF0
0FFFF0
0FCFF0
0FC7E0
0FC3E0
07C7E0
0FC7E0
07FFC0
07FFC0
07FFC0
07FF80
07FF80
07CF80
07CF80
03CF80
03CF80
03C780
03C7C0
03A7C0
02A3C0
ENDCHAR
STARTCHAR racute
ENCODING 341
SWIDTH 616 0
DWIDTH 22 0
BBX 23 41 1 -3
BITMAP
000020
0000F0
0001F0
0003F8
0007FC
001FFE
001FC0
001E00
001000
000000
000000
014000
3FFF00
FFFFC0
7FFFF0
3FFFF0
1FFFF8
1FFFF0
0FFFF0
0FFFF0
0FFFF0
0FFFF0
0FEFF0
0FC7E0
0FC3E0
0FC7E0
0FC7E0
0FFFE0
0FFFE0
07FFC0
07FFC0
07FF00
07CF00
07CF80
07CF80
07CF80
07CF00
07CF80
07CF80
054780
000080
ENDCHAR
STARTCHAR Rcommaaccent
ENCODING 342
SWIDTH 599 0
DWIDTH 22 0
BBX 20 47 1 -20
BITMAP
01E000
3FFF00
FFFFC0
7FFFE0
3FFFF0
1FFFF0
1FFFF0
0FFFF0
0FFFF0
0FFFF0
0FFFF0
0FCFF0
0FC7E0
0FC3E0
07C7E0
0FC7E0
07FFC0
07FFC0
07FFC0
07FF80
07FF80
07CF80
07CF80
03CF80
03CF80
03C780
03C7C0
03A7C0
02A3C0
000000
000000
000000
01FE00
01FE00
01FE00
01FE00
03FE00
03FE00
03FE00
03FE00
013E00
001E00
001E00
001E00
001C00
001C00
001C00
ENDCHAR
STARTCHAR rcommaaccent
ENCODING 343
SWIDTH 616 0
DWIDTH 22 0
BBX 21 48 1 -21
BITMAP
014000
3FFF00
FFFFC0
7FFFF0
3FFFF0
1FFFF8
1FFFF0
0FFFF0
0FFFF0
0FFFF0
0FFFF0
0FEFF0
0FC7E0
0FC3E0
0FC7E0
0FC7E0
0FFFE0
0FFFE0
07FFC0
07FFC0
07FF00
07CF00
07CF80
07CF80
07CF80
07CF00
07CF80
07CF80
054780
000080
000000
000000
000000
01FE00
01FF00
01FF00
01FF00
01FF00
01FF00
01FF00
01FF00
019F00
000E00
000E00
001E00
001E00
001E00
001E00
ENDCHAR
STARTCHAR Rcaron
ENCODING 344
SWIDTH 599 0
DWIDTH 22 0
BBX 20 44 1 -2
BITMAP
060180
1F01C0
1F03E0
0F87E0
0F87C0
07CFC0
07FF80
03FF80
03FF00
01FF00
01FE00
01FE00
000400
000000
000000
01E000
3FFF00
FFFFC0
7FFFE0
3FFFF0
1FFFF0
1FFFF0
0FFFF0
0FFFF0
0FFFF0
0FFFF0
0FCFF0
0FC7E0
0FC3E0
07C7E0
0FC7E0
07FFC0
07FFC0
07FFC0
07FF80
07FF80
07CF80
07CF80
03CF80
03CF80
03C780
03C7C0
03A7C0
02A3C0
ENDCHAR
STARTCHAR rcaron
ENCODING 345
SWIDTH 616 0
DWIDTH 22 0
BBX 21 45 1 -3
BITMAP
060180
1F03C0
1F03E0
0F87E0
0F87C0
07CFC0
07DF80
07FF80
03FF00
03FF00
01FE00
01FE00
000400
000000
000000
014000
3FFF00
FFFFC0
7FFFF0
3FFFF0
1FFFF8
1FFFF0
0FFFF0
0FFFF0
0FFFF0
0FFFF0
0FEFF0
0FC7E0
0FC3E0
0FC7E0
0FC7E0
0FFFE0
0FFFE0
07FFC0
07FFC0
07FF00
07CF00
07CF80
07CF80
07CF80
07CF00
07CF80
07CF80
054780
000080
ENDCHAR
STARTCHAR Sacute
ENCODING 346
SWIDTH 504 0
DWIDTH 18 0
BBX 20 41 1 -3
BITMAP
000180
0003C0
000780
000FC0
001FF0
007FE0
00FF00
00F800
008000
000000
000000
008000
07F800
1FFC00
3FFE00
7FFF00
7FFF80
7FFF00
FFFF00
FFFF00
FFFF00
FFFF00
FFFF00
FE7F00
FE7F00
FE0500
7FE000
7FF000
3FFC00
1FFC00
07FE00
007E00
1E7E00
7E3E00
7E7E00
3FFC00
3FF800
1FF800
0FF000
02D000
004000
ENDCHAR
STARTCHAR sacute
ENCODING 347
SWIDTH 481 0
DWIDTH 17 0
BBX 19 40 1 -2
BITMAP
000180
000380
000780
001FC0
003FE0
007FE0
00FF00
00F000
008000
000000
000000
018000
0FF000
1FFC00
3FFE00
7FFE00
7FFF00
FFFE00
FFFE00
FFFE00
FFFE00
FFFE00
FFFE00
FEFE00
FE7E00
FE3E00
7F0000
7FE000
7FF000
3FF800
0FF800
03F800
007C00
3E7C00
7E7800
3FF800
3FF000
1FF000
1FE000
0FA000
ENDCHAR
STARTCHAR Scircumflex
ENCODING 348
SWIDTH 504 0
DWIDTH 18 0
BBX 17 45 1 -3
BITMAP
051000
07F800
07F800
0FFC00
0FFC00
0FFE00
1F7E00
1F3F00
3E1F00
3C0F80
780780
700300
100200
000000
000000
008000
07F800
1FFC00
3FFE00
7FFF00
7FFF80
7FFF00
FFFF00
FFFF00
FFFF00
FFFF00
FFFF00
FE7F00
FE7F00
FE0500
7FE000
7FF000
3FFC00
1FFC00
07FE00
007E00
1E7E00
7E3E00
7E7E00
3FFC00
3FF800
1FF800
0FF000
02D000
004000
ENDCHAR
STARTCHAR scircumflex
ENCODING 349
SWIDTH 481 0
DWIDTH 17 0
BBX 17 44 1 -2
BITMAP
053000
07F000
0FF800
0FF800
1FFC00
1FFC00
1F7E00
3E3E00
3C1F00
781F00
700F80
F00700
200200
000000
000000
018000
0FF000
1FFC00
3FFE00
7FFE00
7FFF00
FFFE00
FFFE00
FFFE00
FFFE00
FFFE00
FFFE00
FEFE00
FE7E00
FE3E00
7F0000
7FE000
7FF000
3FF800
0FF800
03F800
007C00
3E7C00
7E7800
3FF800
3FF000
1FF000
1FE000
0FA000
ENDCHAR
STARTCHAR Scedilla
ENCODING 350
SWIDTH 504 0
DWIDTH 18 0
BBX 17 39 1 -12
BITMAP
008000
07F800
1FFC00
3FFE00
7FFF00
7FFF80
7FFF00
FFFF00
FFFF00
FFFF00
FFFF00
FFFF00
FE7F00
FE7F00
FE0500
7FE000
7FF000
3FFC00
1FFC00
07FE00
007E00
1E7E00
7E3E00
7E7E00
3FFC00
3FF800
1FF800
0FF000
02F000
01C000
01C000
01C000
01F800
01F800
003800
003800
00F800
01F800
01F800
ENDCHAR
STARTCHAR scedilla
ENCODING 351
SWIDTH 481 0
DWIDTH 17 0
BBX 16 40 1 -13
BITMAP
0180
0FF0
1FFC
3FFE
7FFE
7FFF
FFFE
FFFE
FFFE
FFFE
FFFE
FFFE
FEFE
FE7E
FE3E
7F00
7FE0
7FF0
3FF8
0FF8
03F8
007C
3E7C
7E78
3FF8
3FF0
1FF0
1FE0
0FA0
0380
0380
0300
0700
07F0
07F0
0070
0070
01F0
07F0
07F0
ENDCHAR
STARTCHAR Scaron
ENCODING 352
SWIDTH 503 0
DWIDTH 18 0
BBX 17 49 1 -3
BITMAP
100400
300E00
F80F00
7C1F00
7C3F00
3E3E00
3E7E00
3FFC00
1FFC00
1FF800
0FF800
0FF000
07F000
000000
000000
000000
000000
000000
000000
008000
07F800
1FFC00
3FFE00
7FFF00
7FFF80
7FFF00
FFFF00
FFFF00
FFFF00
FFFF00
FFFF00
FE7F00
FE7F00
FE0500
FFE000
7FF000
3FFC00
1FFC00
07FE00
007E00
1E7E00
7E3E00
7E7E00
3FFC00
3FF800
1FF800
0FF000
02D000
004000
ENDCHAR
STARTCHAR scaron
ENCODING 353
SWIDTH 479 0
DWIDTH 17 0
BBX 16 47 1 -2
BITMAP
200C
F01E
F81F
7C3F
7C3E
7E7E
3EFC
3FFC
1FF8
1FF8
0FF0
0FE0
0660
0000
0000
0000
0000
0000
01C0
0FF0
1FF8
3FFC
7FFE
7FFF
FFFE
FFFE
FFFE
FFFE
FFFE
FFFE
FE7E
FE7E
FE7E
7F80
7FE0
7FF0
3FF8
0FF8
03F8
0078
3E7C
7E78
3FF8
3FF0
1FF0
1FE0
0FA0
ENDCHAR
STARTCHAR Tcommaaccent
ENCODING 354
SWIDTH 622 0
DWIDTH 22 0
BBX 20 40 1 -14
BITMAP
BFFF80
7FFFF0
7FFFF0
3FFFE0
3FFFC0
3FFFE0
1FFFE0
1FFFE0
1FFFC0
1FFFC0
1FFFC0
1FFFC0
18FC40
00F800
00FC00
00FC00
00FC00
00F800
00F800
00FC00
00F800
00F800
00F800
00F800
00F800
00F800
00F800
00F800
00F800
00F000
007000
006000
007000
00FE00
00FE00
000E00
000E00
003E00
00FE00
007E00
ENDCHAR
STARTCHAR tcommaaccent
ENCODING 355
SWIDTH 683 0
DWIDTH 25 0
BBX 22 42 1 -15
BITMAP
01FF80
3FFFFC
FFFFFC
7FFFF8
7FFFF8
3FFFF0
3FFFF0
1FFFF0
1FFFF0
1FFFF0
1FFFF0
1FFFF0
1F7EF0
1C7E10
107E00
007E00
007E00
007E00
007E00
007E00
007E00
007E00
003E00
003E00
003E00
003E00
003E00
003E00
003E00
003E00
001E00
001E00
001800
003800
003800
003F00
003F00
000700
000700
000F00
003F00
003F00
ENDCHAR
STARTCHAR Tcaron
ENCODING 356
SWIDTH 622 0
DWIDTH 22 0
BBX 20 45 1 -4
BITMAP
0C0100
3E0380
1F07C0
1F0FC0
1F8F80
0F9F80
0FDF00
07FF00
07FE00
03FE00
03FC00
01FC00
000800
000000
000000
BFFF80
7FFFF0
7FFFF0
3FFFE0
3FFFC0
3FFFE0
1FFFE0
1FFFE0
1FFFC0
1FFFC0
1FFFC0
1FFFC0
18FC40
00F800
00FC00
00FC00
00FC00
00F800
00F800
00FC00
00F800
00F800
00F800
00F800
00F800
00F800
00F800
00F800
00F800
008000
ENDCHAR
STARTCHAR tcaron
ENCODING 357
SWIDTH 622 0
DWIDTH 22 0
BBX 20 45 1 -4
BITMAP
060180
1F01C0
1F03E0
0F87E0
0F87C0
07CFC0
07FF80
03FF80
03FF00
03FF00
01FE00
01FE00
000400
000000
000000
BFFF80
7FFFF0
7FFFF0
3FFFE0
3FFFC0
3FFFE0
1FFFE0
1FFFE0
1FFFC0
1FFFC0
1FFFC0
1FFFC0
18FC40
00F800
00FC00
00FC00
00FC00
00F800
00F800
00FC00
00F800
00F800
00F800
00F800
00F800
00F800
00F800
00F800
00F800
008000
ENDCHAR
STARTCHAR Utilde
ENCODING 360
SWIDTH 637 0
DWIDTH 23 0
BBX 23 39 0 -2
BITMAP
020B00
0F0F80
1F3FC0
1FFFE0
0FFFE0
07FFC0
07E380
018100
000000
000000
03E400
FFC7F0
3FC7FE
1FC7F8
1FC7F0
1FC7F0
1FC7F0
1FC7F0
1FC7E0
0FC7E0
0FC7E0
0FC7E0
0FC7C0
0FC7C0
0FC7C0
0FC7C0
0FC7C0
0FC7C0
0FC7C0
0FCFC0
0FCFC0
07CFC0
07FF80
07FF80
07FF80
07DF00
01D200
019400
011400
ENDCHAR
STARTCHAR utilde
ENCODING 361
SWIDTH 708 0
DWIDTH 26 0
BBX 26 37 0 0
BITMAP
01058000
0787E000
0FDFE000
0FFFF800
07FFF000
03FFF000
01F8C000
00608000
00000000
00000000
00100000
FFE1E800
3FF1FF00
1FE1FFC0
1FF1FF00
1FE1FE00
1FE1FE00
0FF1FE00
0FF1FC00
0FF1FC00
0FF1FC00
07F1F800
07F1F800
07F1F800
07E1F800
07E1F800
07E3F800
07F1F800
07F1F800
03F3F000
07F3F000
03F3F000
01FFF000
01FFF000
01FFE000
01F7E000
0073C000
ENDCHAR
STARTCHAR Umacron
ENCODING 362
SWIDTH 637 0
DWIDTH 23 0
BBX 23 36 0 -2
BITMAP
07FFC0
07FFC0
07FF80
07FF80
00E980
000000
000000
03E400
FFC7F0
3FC7FE
1FC7F8
1FC7F0
1FC7F0
1FC7F0
1FC7F0
1FC7E0
0FC7E0
0FC7E0
0FC7E0
0FC7C0
0FC7C0
0FC7C0
0FC7C0
0FC7C0
0FC7C0
0FC7C0
0FCFC0
0FCFC0
07CFC0
07FF80
07FF80
07FF80
07DF00
01D200
019400
011400
ENDCHAR
STARTCHAR umacron
ENCODING 363
SWIDTH 708 0
DWIDTH 26 0
BBX 26 34 0 0
BITMAP
01FFE000
01FFE000
01FFE000
01FFE000
00746000
00000000
00000000
00100000
FFE1E800
3FF1FF00
1FE1FFC0
1FF1FF00
1FE1FE00
1FE1FE00
0FF1FE00
0FF1FC00
0FF1FC00
0FF1FC00
07F1F800
07F1F800
07F1F800
07E1F800
07E1F800
07E3F800
07F1F800
07F1F800
03F3F000
07F3F000
03F3F000
01FFF000
01FFF000
01FFE000
01F7E000
0073C000
ENDCHAR
STARTCHAR Ubreve
ENCODING 364
SWIDTH 637 0
DWIDTH 23 0
BBX 23 42 0 -2
BITMAP
03C000
03C1F0
03C1E0
03C1E0
01F3E0
01FFC0
01FFC0
013F80
002780
000680
000080
000000
000000
03E400
FFC7F0
3FC7FE
1FC7F8
1FC7F0
1FC7F0
1FC7F0
1FC7F0
1FC7E0
0FC7E0
0FC7E0
0FC7E0
0FC7C0
0FC7C0
0FC7C0
0FC7C0
0FC7C0
0FC7C0
0FC7C0
0FCFC0
0FCFC0
07CFC0
07FF80
07FF80
07FF80
07DF00
01D200
019400
011400
ENDCHAR
STARTCHAR ubreve
ENCODING 365
SWIDTH 708 0
DWIDTH 26 0
BBX 26 40 0 0
BITMAP
01F00000
01F07800
00F0F800
00F0F800
00F9F000
00FFF000
007FF000
005FE000
0009C000
00012000
00002000
00000000
00000000
00100000
FFE1E800
3FF1FF00
1FE1FFC0
1FF1FF00
1FE1FE00
1FE1FE00
0FF1FE00
0FF1FC00
0FF1FC00
0FF1FC00
07F1F800
07F1F800
07F1F800
07E1F800
07E1F800
07E3F800
07F1F800
07F1F800
03F3F000
07F3F000
03F3F000
01FFF000
01FFF000
01FFE000
01F7E000
0073C000
ENDCHAR
STARTCHAR Uring
ENCODING 366
SWIDTH 637 0
DWIDTH 23 0
BBX 23 42 0 -2
BITMAP
001800
00FE00
00FF00
01FF80
01C380
01C380
00C300
00F700
00FE00
00BE00
000800
000000
000000
03E400
FFC7F0
3FC7FE
1FC7F8
1FC7F0
1FC7F0
1FC7F0
1FC7F0
1FC7E0
0FC7E0
0FC7E0
0FC7E0
0FC7C0
0FC7C0
0FC7C0
0FC7C0
0FC7C0
0FC7C0
0FC7C0
0FCFC0
0FCFC0
07CFC0
07FF80
07FF80
07FF80
07DF00
01D200
019400
011400
ENDCHAR
STARTCHAR uring
ENCODING 367
SWIDTH 708 0
DWIDTH 26 0
BBX 26 40 0 0
BITMAP
000D0000
003F8000
007FC000
007FE000
0070C000
0070E000
0070C000
003F8000
003F8000
002F0000
00020000
00000000
00000000
00100000
FFE1E800
3FF1FF00
1FE1FFC0
1FF1FF00
1FE1FE00
1FE1FE00
0FF1FE00
0FF1FC00
0FF1FC00
0FF1FC00
07F1F800
07F1F800
07F1F800
07E1F800
07E1F800
07E3F800
07F1F800
07F1F800
03F3F000
07F3F000
03F3F000
01FFF000
01FFF000
01FFE000
01F7E000
0073C000
ENDCHAR
STARTCHAR Uhungarumlaut
ENCODING 368
SWIDTH 637 0
DWIDTH 23 0
BBX 23 44 0 -2
BITMAP
008080
00C0C0
01E1D0
01F1FC
03F9F8
03F3F0
03E3E0
07C7C0
078780
0F0700
0E0E00
0C0C00
040400
000000
000000
03E400
FFC7F0
3FC7FE
1FC7F8
1FC7F0
1FC7F0
1FC7F0
1FC7F0
1FC7E0
0FC7E0
0FC7E0
0FC7E0
0FC7C0
0FC7C0
0FC7C0
0FC7C0
0FC7C0
0FC7C0
0FC7C0
0FCFC0
0FCFC0
07CFC0
07FF80
07FF80
07FF80
07DF00
01D200
019400
011400
ENDCHAR
STARTCHAR uhungarumlaut
ENCODING 369
SWIDTH 708 0
DWIDTH 26 0
BBX 26 42 0 0
BITMAP
00404000
00606000
00706800
00F8FE00
00FCFC00
01F9F800
01F1F000
01E1E000
03C3C000
03838000
07070000
06030000
02020000
00000000
00000000
00100000
FFE1E800
3FF1FF00
1FE1FFC0
1FF1FF00
1FE1FE00
1FE1FE00
0FF1FE00
0FF1FC00
0FF1FC00
0FF1FC00
07F1F800
07F1F800
07F1F800
07E1F800
07E1F800
07E3F800
07F1F800
07F1F800
03F3F000
07F3F000
03F3F000
01FFF000
01FFF000
01FFE000
01F7E000
0073C000
ENDCHAR
STARTCHAR Uogonek
ENCODING 370
SWIDTH 637 0
DWIDTH 23 0
BBX 23 38 0 -11
BITMAP
03E400
FFC7F0
3FC7FE
1FC7F8
1FC7F0
1FC7F0
1FC7F0
1FC7F0
1FC7E0
0FC7E0
0FC7E0
0FC7E0
0FC7C0
0FC7C0
0FC7C0
0FC7C0
0FC7C0
0FC7C0
0FC7C0
0FCFC0
0FCFC0
07CFC0
07FF80
07FF80
07FF80
07DF00
01DE00
019E00
011C00
001C00
003C00
003C00
003E00
001F10
001FF0
001FF0
000FF0
0003F0
ENDCHAR
STARTCHAR uogonek
ENCODING 371
SWIDTH 662 0
DWIDTH 24 0
BBX 26 36 0 -10
BITMAP
FFF1E800
3FE1FF00
1FE1FFC0
1FE1FF00
1FE1FE00
1FE1FE00
0FF1FC00
0FF1FC00
0FF1FC00
0FF1F800
0FF1F800
07F1F800
07F1F800
07E1F800
07E1F800
07E3F800
07E1F800
07F3F800
03F3F000
07F3F000
03F3F000
03FFF000
01FFF000
01FFE000
01FFE000
007D4000
003C0000
003C0000
00380000
003C0000
003C0000
003E1000
003FE000
001FE000
000FE000
0007E000
ENDCHAR
STARTCHAR Wcircumflex
ENCODING 372
SWIDTH 777 0
DWIDTH 28 0
BBX 28 43 0 -1
BITMAP
00298000
003F8000
003FC000
007FC000
007FE000
00FFE000
00FBF000
01F1F000
01E0F800
03E07800
03C07C00
03803800
01001000
00000000
00000000
000F1400
03C71F80
3FCF1FF0
FFCF1FC0
1FCFBF80
0FCFBF00
0FDFBF00
07DFBE00
07FFFE00
07FFFC00
03FFFC00
03FFF800
03FFF800
01FFF800
01FFF800
00FFF800
00FFF800
00FFF000
00FFF000
007FF000
007FF000
0079F000
0079E000
0039E000
0039C000
0039C000
002AC000
00080000
ENDCHAR
STARTCHAR wcircumflex
ENCODING 373
SWIDTH 704 0
DWIDTH 25 0
BBX 26 42 0 0
BITMAP
00530000
007F0000
007F8000
00FF8000
00FFC000
01FFC000
01F7E000
03E3E000
03C1F000
07C0F000
0780F800
07007000
02002000
00000000
00000000
000C4000
1F9C3C00
FF9E3FC0
3F9E7F00
1F9E7E00
0F9E7E00
0F9F7C00
07FF7C00
07FFF800
07FFF800
07DFF800
07FFF000
03FFF000
01FFF000
01FFF000
01FFF000
01FFE000
00FFE000
00FFE000
00FBE000
00FBE000
007BE000
007BE000
007BE000
0039E000
0039E000
0011E000
ENDCHAR
STARTCHAR Ycircumflex
ENCODING 374
SWIDTH 688 0
DWIDTH 25 0
BBX 25 44 0 -2
BITMAP
00530000
007F0000
00FF8000
00FF8000
01FFC000
01FFC000
01F7E000
03E3E000
03C1F000
0781F000
0700F800
0E007000
02002000
00000000
00000000
0BC08000
FFE1F000
3FE1FF00
0FF1FF80
07F1FC00
03FBF800
01FBF000
00FFF000
007FE000
007FC000
007FC000
003FC000
003FC000
003FC000
001FC000
001FC000
000FC000
000F8000
000F8000
000F8000
000F8000
00078000
00078000
00078000
00078000
00078000
00078000
00078000
00040000
ENDCHAR
STARTCHAR ycircumflex
ENCODING 375
SWIDTH 604 0
DWIDTH 22 0
BBX 22 45 0 -3
BITMAP
014C00
01FC00
03FE00
03FE00
03FF00
07FF00
07DF80
0F8F80
0F07C0
1E03C0
1E03E0
1C01C0
080080
000000
000000
000400
FF87A0
3FC7FC
1FC7F0
07CFE0
07EFC0
03FF80
03FF00
01FF00
01FE00
00FE00
00FE00
00FE00
00FE00
007E00
007E00
007E00
007E00
007C00
003C00
003C00
007C00
007C00
007C00
007C00
007C00
007C00
003C00
002400
002000
ENDCHAR
STARTCHAR Ydieresis
ENCODING 376
SWIDTH 688 0
DWIDTH 25 0
BBX 25 41 0 -2
BITMAP
00007000
0FE3FC00
0FE3FC00
0FE3FC00
0FE3F800
0FE3FC00
0FE3FC00
0FE3FC00
0FE3F800
00000000
00000000
00000000
0BC08000
FFE1F000
3FE1FF00
0FF1FF80
07F1FC00
03FBF800
01FBF000
00FFF000
007FE000
007FC000
007FC000
003FC000
003FC000
003FC000
001FC000
001FC000
000FC000
000F8000
000F8000
000F8000
000F8000
00078000
00078000
00078000
00078000
00078000
00078000
00078000
00040000
ENDCHAR
STARTCHAR Zacute
ENCODING 377
SWIDTH 695 0
DWIDTH 25 0
BBX 25 39 1 -1
BITMAP
00000800
00001C00
00007C00
0000FE00
0001FF00
0003FF80
0007F000
00078000
00040000
00000000
00000000
03FC0000
3FFFF000
FFFFFF00
7FFFFE00
7FFFFC00
3FFFFC00
3FFFF800
1FFFF800
1FFFF000
1FFFF000
0FFFE000
0FFFE000
0F3FC000
0C3F8000
087F0000
007E0000
00FC0000
00F80000
00F80000
01F00000
01F00000
01E00000
03FF0000
03FF0000
07FF0000
07FF0000
07FE0000
024C0000
ENDCHAR
STARTCHAR zacute
ENCODING 378
SWIDTH 622 0
DWIDTH 22 0
BBX 23 40 1 -2
BITMAP
000020
000070
0001F0
0003F8
0007FC
000FFE
001FC0
001E00
001000
000000
000000
07FE00
7FFFE0
FFFFF0
7FFFF0
7FFFE0
3FFFE0
3FFFC0
1FFFC0
1FFFC0
1FFFC0
0FFF80
0FFF80
0F3F00
0C7E00
087C00
007C00
00F800
00F800
00F000
00F000
01F000
01E000
01DC00
03FF00
03FE00
03FE00
03FE00
037E00
020200
ENDCHAR
STARTCHAR Zdotaccent
ENCODING 379
SWIDTH 695 0
DWIDTH 25 0
BBX 24 41 1 -1
BITMAP
02FF80
01FF80
01FF80
00FF80
00FF80
00FF80
00FF80
00FF80
00FF80
00FF80
00F080
000000
000000
03FC00
3FFFF0
FFFFFF
7FFFFE
7FFFFC
3FFFFC
3FFFF8
1FFFF8
1FFFF0
1FFFF0
0FFFE0
0FFFE0
0F3FC0
0C3F80
087F00
007E00
00FC00
00F800
00F800
01F000
01F000
01E000
03FF00
03FF00
07FF00
07FF00
07FE00
024C00
ENDCHAR
STARTCHAR zdotaccent
ENCODING 380
SWIDTH 622 0
DWIDTH 22 0
BBX 20 42 1 -2
BITMAP
0BFE00
07FE00
07FE00
03FE00
03FE00
03FE00
03FE00
03FE00
03FE00
03FE00
03C200
000000
000000
07FE00
7FFFE0
FFFFF0
7FFFF0
7FFFE0
3FFFE0
3FFFC0
1FFFC0
1FFFC0
1FFFC0
0FFF80
0FFF80
0F3F00
0C7E00
087C00
007C00
00F800
00F800
00F000
00F000
01F000
01E000
01DC00
03FF00
03FE00
03FE00
03FE00
037E00
020200
ENDCHAR
STARTCHAR Zcaron
ENCODING 381
SWIDTH 693 0
DWIDTH 25 0
BBX 24 47 1 -1
BITMAP
010080
0300C0
0F81E0
0781F0
07C3E0
03C7E0
03E7C0
03FFC0
01FF80
01FF80
00FF00
00FF00
00FE00
000000
000000
000000
000000
000000
000000
03FC00
3FFFF0
FFFFFF
7FFFFE
7FFFFC
3FFFFC
3FFFF8
1FFFF8
1FFFF0
1FFFF0
1FFFE0
0FFFE0
0F3FC0
0C3F80
087F00
007E00
00FC00
00F800
01F800
00F000
01F000
01E000
03FF00
03FF00
07FF00
07FF00
07FE00
024C00
ENDCHAR
STARTCHAR zcaron
ENCODING 382
SWIDTH 621 0
DWIDTH 22 0
BBX 20 48 1 -2
BITMAP
080100
0C0380
3E07C0
1F07C0
1F0FC0
0F8F80
0F9F80
07FF00
07FF00
07FE00
03FE00
03FC00
01FC00
000000
000000
000000
000000
000000
000000
07FE00
7FFFE0
FFFFF0
7FFFF0
7FFFE0
3FFFE0
3FFFC0
1FFFC0
1FFFC0
1FFFC0
0FFF80
0FFF80
0F3F00
0C7E00
087C00
007C00
00F800
00F800
00F000
01F000
01F000
01E000
01DC00
03FF00
03FE00
03FE00
03FE00
037E00
020200
ENDCHAR
STARTCHAR DZ
ENCODING 497
SWIDTH 194 0
DWIDTH 7 0
BBX 1 1 0 0
BITMAP
00
ENDCHAR
STARTCHAR Dz
ENCODING 498
SWIDTH 194 0
DWIDTH 7 0
BBX 1 1 0 0
BITMAP
00
ENDCHAR
STARTCHAR dotlessj
ENCODING 567
SWIDTH 458 0
DWIDTH 17 0
BBX 17 29 -1 -2
BITMAP
05C000
03FE00
03FF80
01FE00
01FE00
01FE00
01FE00
00FC00
00FC00
00FC00
00FC00
00FC00
00FC00
00FC00
00FC00
00FC00
00FC00
00FC00
18FC00
F8FC00
FCFC00
7CF800
7CF800
7FF800
3FF800
3FF000
1FF000
02D000
001000
ENDCHAR
STARTCHAR circumflex
ENCODING 710
SWIDTH 528 0
DWIDTH 19 0
BBX 17 13 1 25
BITMAP
053000
07F000
0FF800
0FF800
1FFC00
1FFC00
1F7E00
3E3E00
3C1F00
781F00
700F80
F00700
200200
ENDCHAR
STARTCHAR caron
ENCODING 711
SWIDTH 486 0
DWIDTH 18 0
BBX 16 13 1 25
BITMAP
600C
F01E
F81F
FC3E
7C7E
7E7C
3EFC
3FF8
1FF8
1FF0
0FF0
0FE0
0020
ENDCHAR
STARTCHAR breve
ENCODING 728
SWIDTH 464 0
DWIDTH 17 0
BBX 14 11 1 -3
BITMAP
F800
783C
783C
787C
7C7C
7FF8
3FF8
2FF0
04F0
00D0
0010
ENDCHAR
STARTCHAR dotaccent
ENCODING 729
SWIDTH 388 0
DWIDTH 14 0
BBX 11 11 1 8
BITMAP
BFE0
7FE0
7FE0
3FE0
3FE0
3FE0
3FE0
3FE0
3FE0
3FE0
3C20
ENDCHAR
STARTCHAR ring
ENCODING 730
SWIDTH 370 0
DWIDTH 13 0
BBX 10 11 2 10
BITMAP
1A00
7F00
FF80
FFC0
E180
E1C0
E180
7F00
7F00
5E00
0400
ENDCHAR
STARTCHAR ogonek
ENCODING 731
SWIDTH 360 0
DWIDTH 13 0
BBX 9 12 2 0
BITMAP
7000
F000
F000
F000
F000
F000
F000
FC80
FF80
7F80
3F80
1F80
ENDCHAR
STARTCHAR tilde
ENCODING 732
SWIDTH 535 0
DWIDTH 19 0
BBX 17 8 1 -3
BITMAP
103C00
387E00
FCFF00
7FFF80
7FFF80
3FFF00
1F8E00
060400
ENDCHAR
STARTCHAR hungarumlaut
ENCODING 733
SWIDTH 554 0
DWIDTH 20 0
BBX 17 13 2 25
BITMAP
101000
1C1800
1E1E00
1F1F80
3F3F00
3E3F00
7C3E00
7C7C00
787800
F0F000
E0E000
C0C000
804000
ENDCHAR
STARTCHAR dotaccentcmb
ENCODING 775
SWIDTH 396 0
DWIDTH 14 0
BBX 10 12 2 13
BITMAP
0F80
FFC0
FFC0
7FC0
7FC0
7FC0
7FC0
7FC0
7FC0
7FC0
7FC0
4000
ENDCHAR
STARTCHAR uni030F
ENCODING 783
SWIDTH 549 0
DWIDTH 20 0
BBX 18 13 0 25
BITMAP
020400
0C0C00
2E1E00
FE3E00
7F7F00
3F1F00
1F1F00
0F8F80
078780
0383C0
01C1C0
00C0C0
008080
ENDCHAR
STARTCHAR uni0311
ENCODING 785
SWIDTH 490 0
DWIDTH 18 0
BBX 14 9 2 13
BITMAP
1FC0
3FE0
7FF0
7FF8
7CF8
7878
F078
F07C
F000
ENDCHAR
STARTCHAR uni0326
ENCODING 806
SWIDTH 360 0
DWIDTH 13 0
BBX 9 15 2 -3
BITMAP
7F80
7F80
FF80
FF80
FF80
FF80
FF80
FF80
4F80
0780
0780
0780
0700
0700
0F00
ENDCHAR
STARTCHAR endash
ENCODING 8211
SWIDTH 478 0
DWIDTH 17 0
BBX 13 7 2 10
BITMAP
FFF8
FFF8
FFF8
FFF0
FFF0
FFF0
1D30
ENDCHAR
STARTCHAR emdash
ENCODING 8212
SWIDTH 567 0
DWIDTH 20 0
BBX 17 7 2 10
BITMAP
FFFF80
FFFF00
FFFF00
FFFF00
FFFF00
FFFF00
1CE200
ENDCHAR
STARTCHAR quoteleft
ENCODING 8216
SWIDTH 373 0
DWIDTH 13 0
BBX 10 17 2 9
BITMAP
7800
7800
7000
7000
F000
F000
F880
FFC0
FFC0
FF80
FF80
FF80
FF80
FF80
FF80
FF80
FF80
ENDCHAR
STARTCHAR quoteright
ENCODING 8217
SWIDTH 369 0
DWIDTH 13 0
BBX 9 17 2 9
BITMAP
FF80
FF80
FF80
FF80
FF80
FF80
FF80
FF80
FF80
FF80
0780
0780
0780
0780
0700
0700
0F00
ENDCHAR
STARTCHAR quotesinglbase
ENCODING 8218
SWIDTH 369 0
DWIDTH 13 0
BBX 9 17 2 9
BITMAP
FF80
FF80
FF80
FF80
FF80
FF80
FF80
FF80
FF80
FF80
0780
0780
0780
0780
0700
0700
0F00
ENDCHAR
STARTCHAR quotedblleft
ENCODING 8220
SWIDTH 687 0
DWIDTH 25 0
BBX 21 17 2 9
BITMAP
780F00
780F00
700F00
700F00
F00E00
F00E00
F89F10
FFDFF8
FFDFF8
FFDFF8
FF8FF8
FF9FF8
FF9FF8
FF9FF8
FF8FF8
FF8FF8
FF8FF8
ENDCHAR
STARTCHAR quotedblright
ENCODING 8221
SWIDTH 677 0
DWIDTH 24 0
BBX 20 17 2 9
BITMAP
FF1FF0
FF1FF0
FF1FF0
FF9FF0
FF9FF0
FF9FF0
FF1FF0
FF9FF0
FF1FF0
FF9FF0
0700F0
0700F0
0700F0
0700F0
0F00E0
0F00E0
0F00E0
ENDCHAR
STARTCHAR quotedblbase
ENCODING 8222
SWIDTH 697 0
DWIDTH 25 0
BBX 21 18 2 -11
BITMAP
E18F18
FF8FF8
FF8FF8
FF8FF8
FF8FF8
FF8FF8
FF8FF8
FF8FF8
FF8FF8
FF8FF8
FF8FF8
078078
078078
078078
078078
070078
070070
070070
ENDCHAR
STARTCHAR ellipsis
ENCODING 8230
SWIDTH 1462 0
DWIDTH 53 0
BBX 50 12 1 1
BITMAP
03800030000B00
FFC00FFC00FFC0
7FC007FC007FC0
7FC007FC007FC0
7FC007F8007FC0
3FC007FC007FC0
3FC003FC007FC0
3FC003FC007FC0
3FC003FC007FC0
3FC003FC007FC0
3FC003FC007FC0
60000600004000
ENDCHAR
STARTCHAR guilsinglleft
ENCODING 8249
SWIDTH 459 0
DWIDTH 17 0
BBX 15 20 1 2
BITMAP
07FE
07FC
0FF8
0FF0
1FE0
1FC0
3FC0
7F80
FF00
FF00
7F80
7F80
7F80
1FC0
1FE0
0FF0
07F8
03FC
01FC
0008
ENDCHAR
STARTCHAR guilsinglright
ENCODING 8250
SWIDTH 432 0
DWIDTH 16 0
BBX 14 20 1 3
BITMAP
0200
FF80
7F80
7F80
3FC0
1FC0
0FE0
0FF0
07F8
03FC
03F8
07F8
07F8
07F0
0FE0
1FC0
3FC0
7F80
FF00
7E00
ENDCHAR
STARTCHAR fraction
ENCODING 8260
SWIDTH 371 0
DWIDTH 13 0
BBX 13 28 0 -1
BITMAP
0D80
FFF8
7FF0
3FF0
1FE0
1FE0
0FE0
0FE0
0FE0
0FE0
0FC0
0FC0
0FC0
0FC0
0FC0
0FC0
0FC0
0FC0
0FC0
07C0
07C0
07C0
0780
0780
0780
0780
0780
05C0
ENDCHAR
STARTCHAR Euro
ENCODING 8364
SWIDTH 587 0
DWIDTH 21 0
BBX 19 35 1 -8
BITMAP
007C00
03FE00
07FF80
0FFF80
0FFFC0
1FFFE0
1FFFC0
1FFFE0
1FFFE0
1FFFE0
1FFFC0
1FFFC0
1FEFC0
1FCFC0
1FE7C0
FFEFC0
FFC000
0F8000
0F8000
FFE000
FFEF80
0FCF80
0FCF80
07DF80
07FF00
07FF00
03FE00
00EC00
00A800
00A800
00A800
00A000
00A000
002000
002000
ENDCHAR
STARTCHAR trademark
ENCODING 8482
SWIDTH 785 0
DWIDTH 28 0
BBX 28 19 0 8
BITMAP
BFC7E7D0
7FF3E7E0
7FF3F7C0
3FF1FFC0
3FE1FFC0
3FE1FFC0
3FE1FFC0
3FE1FFC0
0781FFC0
0781FFC0
0780DFC0
0780FF80
0700FB80
0780FB80
0780EB80
0780EA80
0780C080
06800000
04000000
ENDCHAR
STARTCHAR minus
ENCODING 8722
SWIDTH 478 0
DWIDTH 17 0
BBX 13 7 2 10
BITMAP
FFF8
FFF8
FFF8
FFF0
FFF0
FFF0
1D30
ENDCHAR
STARTCHAR commaaccent
ENCODING 63171
SWIDTH 360 0
DWIDTH 13 0
BBX 9 17 2 -5
BITMAP
FF80
FF80
FF80
FF80
FF80
FF80
FF80
FF80
FF80
FF80
0F80
0780
0780
0780
0700
0700
0700
ENDCHAR
STARTCHAR .notdef
ENCODING -1
SWIDTH 365 0
DWIDTH 13 0
BBX 10 24 1 0
BITMAP
FFC0
8040
8040
8040
8040
8040
8040
8040
8040
8040
8040
8040
8040
8040
8040
8040
8040
8040
8040
8040
8040
8040
8040
FFC0
ENDCHAR
STARTCHAR .null
ENCODING -1
SWIDTH 0 0
DWIDTH 0 0
BBX 1 1 0 0
BITMAP
00
ENDCHAR
STARTCHAR nonmarkingreturn
ENCODING -1
SWIDTH 333 0
DWIDTH 12 0
BBX 1 1 0 0
BITMAP
00
ENDCHAR
ENDFONT
